<svg xmlns="http://www.w3.org/2000/svg" xmlns:xlink="http://www.w3.org/1999/xlink" contentStyleType="text/css" data-diagram-type="CLASS" height="989px" preserveAspectRatio="none" style="width:2162px;height:989px;background:#FFFFFF;" version="1.1" viewBox="0 0 2162 989" width="2162px" zoomAndPan="magnify"><defs/><g><!--class c1--><g id="elem_c1"><rect codeLine="3" fill="#F1F1F1" height="80.5938" id="c1" rx="2.5" ry="2.5" style="stroke:#181818;stroke-width:0.5;" width="218.8008" x="1217.6" y="289.59"/><ellipse cx="1276.2489" cy="305.59" fill="#ADD1B2" rx="11" ry="11" style="stroke:#181818;stroke-width:1;"/><path d="M1279.2177,311.2306 Q1278.6396,311.5275 1277.9989,311.6681 Q1277.3583,311.8244 1276.6552,311.8244 Q1274.1552,311.8244 1272.8271,310.1837 Q1271.5146,308.5275 1271.5146,305.4025 Q1271.5146,302.2775 1272.8271,300.6212 Q1274.1552,298.965 1276.6552,298.965 Q1277.3583,298.965 1277.9989,299.1212 Q1278.6552,299.2775 1279.2177,299.5744 L1279.2177,302.2931 Q1278.5927,301.715 1277.9989,301.4494 Q1277.4052,301.1681 1276.7802,301.1681 Q1275.4364,301.1681 1274.7489,302.2462 Q1274.0614,303.3087 1274.0614,305.4025 Q1274.0614,307.4962 1274.7489,308.5744 Q1275.4364,309.6369 1276.7802,309.6369 Q1277.4052,309.6369 1277.9989,309.3712 Q1278.5927,309.09 1279.2177,308.5119 L1279.2177,311.2306 Z " fill="#000000"/><text fill="#000000" font-family="sans-serif" font-size="14" lengthAdjust="spacing" textLength="93.0029" x="1296.7489" y="310.4367">Accreditation</text><line style="stroke:#181818;stroke-width:0.5;" x1="1218.6" x2="1435.4008" y1="321.59" y2="321.59"/><rect fill="none" height="6" style="stroke:#C82930;stroke-width:1;" width="6" x="1225.6" y="332.2384"/><text fill="#000000" font-family="sans-serif" font-size="14" lengthAdjust="spacing" textLength="192.8008" x="1237.6" y="338.5851">expiry date: dateTime [0,1]</text><rect fill="none" height="6" style="stroke:#C82930;stroke-width:1;" width="6" x="1225.6" y="348.5353"/><text fill="#000000" font-family="sans-serif" font-size="14" lengthAdjust="spacing" textLength="144.2793" x="1237.6" y="354.882">title: langString [1,*]</text><line style="stroke:#181818;stroke-width:0.5;" x1="1218.6" x2="1435.4008" y1="362.1837" y2="362.1837"/></g><!--class c2--><g id="elem_c2"><rect codeLine="9" fill="#F1F1F1" height="80.5938" id="c2" rx="2.5" ry="2.5" style="stroke:#181818;stroke-width:0.5;" width="227.3867" x="492.31" y="777.08"/><ellipse cx="572.8032" cy="793.08" fill="#ADD1B2" rx="11" ry="11" style="stroke:#181818;stroke-width:1;"/><path d="M575.7719,798.7206 Q575.1938,799.0175 574.5532,799.1581 Q573.9125,799.3144 573.2094,799.3144 Q570.7094,799.3144 569.3813,797.6737 Q568.0688,796.0175 568.0688,792.8925 Q568.0688,789.7675 569.3813,788.1112 Q570.7094,786.455 573.2094,786.455 Q573.9125,786.455 574.5532,786.6112 Q575.2094,786.7675 575.7719,787.0644 L575.7719,789.7831 Q575.1469,789.205 574.5532,788.9394 Q573.9594,788.6581 573.3344,788.6581 Q571.9907,788.6581 571.3032,789.7362 Q570.6157,790.7987 570.6157,792.8925 Q570.6157,794.9862 571.3032,796.0644 Q571.9907,797.1269 573.3344,797.1269 Q573.9594,797.1269 574.5532,796.8612 Q575.1469,796.58 575.7719,796.0019 L575.7719,798.7206 Z " fill="#000000"/><text fill="#000000" font-family="sans-serif" font-size="14" lengthAdjust="spacing" textLength="57.9004" x="593.3032" y="797.9267">Concept</text><line style="stroke:#181818;stroke-width:0.5;" x1="493.31" x2="718.6967" y1="809.08" y2="809.08"/><rect fill="none" height="6" style="stroke:#C82930;stroke-width:1;" width="6" x="500.31" y="819.7284"/><text fill="#000000" font-family="sans-serif" font-size="14" lengthAdjust="spacing" textLength="201.3867" x="512.31" y="826.0751">alternative name: langString</text><rect fill="none" height="6" style="stroke:#C82930;stroke-width:1;" width="6" x="500.31" y="836.0253"/><text fill="#000000" font-family="sans-serif" font-size="14" lengthAdjust="spacing" textLength="120.8799" x="512.31" y="842.372">name: langString</text><line style="stroke:#181818;stroke-width:0.5;" x1="493.31" x2="718.6967" y1="849.6737" y2="849.6737"/></g><!--class c4--><g id="elem_c4"><rect codeLine="15" fill="#F1F1F1" height="64.2969" id="c4" rx="2.5" ry="2.5" style="stroke:#181818;stroke-width:0.5;" width="182.6113" x="1528.69" y="494.48"/><ellipse cx="1571.1026" cy="510.48" fill="#ADD1B2" rx="11" ry="11" style="stroke:#181818;stroke-width:1;"/><path d="M1574.0714,516.1206 Q1573.4933,516.4175 1572.8526,516.5581 Q1572.212,516.7144 1571.5089,516.7144 Q1569.0089,516.7144 1567.6808,515.0738 Q1566.3683,513.4175 1566.3683,510.2925 Q1566.3683,507.1675 1567.6808,505.5113 Q1569.0089,503.855 1571.5089,503.855 Q1572.212,503.855 1572.8526,504.0113 Q1573.5089,504.1675 1574.0714,504.4644 L1574.0714,507.1831 Q1573.4464,506.605 1572.8526,506.3394 Q1572.2589,506.0581 1571.6339,506.0581 Q1570.2901,506.0581 1569.6026,507.1363 Q1568.9151,508.1988 1568.9151,510.2925 Q1568.9151,512.3863 1569.6026,513.4644 Q1570.2901,514.5269 1571.6339,514.5269 Q1572.2589,514.5269 1572.8526,514.2613 Q1573.4464,513.98 1574.0714,513.4019 L1574.0714,516.1206 Z " fill="#000000"/><text fill="#000000" font-family="sans-serif" font-size="14" lengthAdjust="spacing" textLength="89.6943" x="1591.1943" y="515.3267">Organisation</text><line style="stroke:#181818;stroke-width:0.5;" x1="1529.69" x2="1710.3013" y1="526.48" y2="526.48"/><rect fill="none" height="6" style="stroke:#C82930;stroke-width:1;" width="6" x="1536.69" y="537.1284"/><text fill="#000000" font-family="sans-serif" font-size="14" lengthAdjust="spacing" textLength="156.6113" x="1548.69" y="543.4751">name: langString [1,*]</text><line style="stroke:#181818;stroke-width:0.5;" x1="1529.69" x2="1710.3013" y1="550.7769" y2="550.7769"/></g><!--class c5--><g id="elem_c5"><rect codeLine="20" fill="#F1F1F1" height="80.5938" id="c5" rx="2.5" ry="2.5" style="stroke:#181818;stroke-width:0.5;" width="299.082" x="1427.46" y="777.08"/><ellipse cx="1541.2168" cy="793.08" fill="#ADD1B2" rx="11" ry="11" style="stroke:#181818;stroke-width:1;"/><path d="M1544.1856,798.7206 Q1543.6075,799.0175 1542.9668,799.1581 Q1542.3262,799.3144 1541.6231,799.3144 Q1539.1231,799.3144 1537.795,797.6737 Q1536.4825,796.0175 1536.4825,792.8925 Q1536.4825,789.7675 1537.795,788.1112 Q1539.1231,786.455 1541.6231,786.455 Q1542.3262,786.455 1542.9668,786.6112 Q1543.6231,786.7675 1544.1856,787.0644 L1544.1856,789.7831 Q1543.5606,789.205 1542.9668,788.9394 Q1542.3731,788.6581 1541.7481,788.6581 Q1540.4043,788.6581 1539.7168,789.7362 Q1539.0293,790.7987 1539.0293,792.8925 Q1539.0293,794.9862 1539.7168,796.0644 Q1540.4043,797.1269 1541.7481,797.1269 Q1542.3731,797.1269 1542.9668,796.8612 Q1543.5606,796.58 1544.1856,796.0019 L1544.1856,798.7206 Z " fill="#000000"/><text fill="#000000" font-family="sans-serif" font-size="14" lengthAdjust="spacing" textLength="63.0684" x="1561.7168" y="797.9267">Identifier</text><line style="stroke:#181818;stroke-width:0.5;" x1="1428.46" x2="1725.542" y1="809.08" y2="809.08"/><rect fill="none" height="6" style="stroke:#C82930;stroke-width:1;" width="6" x="1435.46" y="819.7284"/><text fill="#000000" font-family="sans-serif" font-size="14" lengthAdjust="spacing" textLength="273.082" x="1447.46" y="826.0751">scheme agency name: langString [0,1]</text><rect fill="none" height="6" style="stroke:#C82930;stroke-width:1;" width="6" x="1435.46" y="836.0253"/><text fill="#000000" font-family="sans-serif" font-size="14" lengthAdjust="spacing" textLength="185.876" x="1447.46" y="842.372">scheme name: string [0,1]</text><line style="stroke:#181818;stroke-width:0.5;" x1="1428.46" x2="1725.542" y1="849.6737" y2="849.6737"/></g><!--class c7--><g id="elem_c7"><rect codeLine="26" fill="#F1F1F1" height="48" id="c7" rx="2.5" ry="2.5" style="stroke:#181818;stroke-width:0.5;" width="181.9121" x="1001.04" y="305.89"/><ellipse cx="1016.04" cy="321.89" fill="#ADD1B2" rx="11" ry="11" style="stroke:#181818;stroke-width:1;"/><path d="M1019.0088,327.5306 Q1018.4306,327.8275 1017.79,327.9681 Q1017.1494,328.1244 1016.4463,328.1244 Q1013.9463,328.1244 1012.6181,326.4838 Q1011.3056,324.8275 1011.3056,321.7025 Q1011.3056,318.5775 1012.6181,316.9213 Q1013.9463,315.265 1016.4463,315.265 Q1017.1494,315.265 1017.79,315.4213 Q1018.4463,315.5775 1019.0088,315.8744 L1019.0088,318.5931 Q1018.3838,318.015 1017.79,317.7494 Q1017.1963,317.4681 1016.5713,317.4681 Q1015.2275,317.4681 1014.54,318.5463 Q1013.8525,319.6088 1013.8525,321.7025 Q1013.8525,323.7963 1014.54,324.8744 Q1015.2275,325.9369 1016.5713,325.9369 Q1017.1963,325.9369 1017.79,325.6713 Q1018.3838,325.39 1019.0088,324.8119 L1019.0088,327.5306 Z " fill="#000000"/><text fill="#000000" font-family="sans-serif" font-size="14" lengthAdjust="spacing" textLength="149.9121" x="1030.04" y="326.7367">AwardingOpportunity</text><line style="stroke:#181818;stroke-width:0.5;" x1="1002.04" x2="1181.9521" y1="337.89" y2="337.89"/><line style="stroke:#181818;stroke-width:0.5;" x1="1002.04" x2="1181.9521" y1="345.89" y2="345.89"/></g><!--class c8--><g id="elem_c8"><rect codeLine="31" fill="#F1F1F1" height="64.2969" id="c8" rx="2.5" ry="2.5" style="stroke:#181818;stroke-width:0.5;" width="219.0059" x="240.5" y="635.78"/><ellipse cx="329.1826" cy="651.78" fill="#ADD1B2" rx="11" ry="11" style="stroke:#181818;stroke-width:1;"/><path d="M332.1514,657.4206 Q331.5732,657.7175 330.9326,657.8581 Q330.292,658.0144 329.5889,658.0144 Q327.0889,658.0144 325.7607,656.3738 Q324.4482,654.7175 324.4482,651.5925 Q324.4482,648.4675 325.7607,646.8113 Q327.0889,645.155 329.5889,645.155 Q330.292,645.155 330.9326,645.3113 Q331.5889,645.4675 332.1514,645.7644 L332.1514,648.4831 Q331.5264,647.905 330.9326,647.6394 Q330.3389,647.3581 329.7139,647.3581 Q328.3701,647.3581 327.6826,648.4363 Q326.9951,649.4988 326.9951,651.5925 Q326.9951,653.6863 327.6826,654.7644 Q328.3701,655.8269 329.7139,655.8269 Q330.3389,655.8269 330.9326,655.5613 Q331.5264,655.28 332.1514,654.7019 L332.1514,657.4206 Z " fill="#000000"/><text fill="#000000" font-family="sans-serif" font-size="14" lengthAdjust="spacing" textLength="33.1406" x="349.6826" y="656.6267">Note</text><line style="stroke:#181818;stroke-width:0.5;" x1="241.5" x2="458.5059" y1="667.78" y2="667.78"/><rect fill="none" height="6" style="stroke:#C82930;stroke-width:1;" width="6" x="248.5" y="678.4284"/><text fill="#000000" font-family="sans-serif" font-size="14" lengthAdjust="spacing" textLength="193.0059" x="260.5" y="684.7751">note literal: langString [1,*]</text><line style="stroke:#181818;stroke-width:0.5;" x1="241.5" x2="458.5059" y1="692.0769" y2="692.0769"/></g><!--class c9--><g id="elem_c9"><rect codeLine="36" fill="#F1F1F1" height="48" id="c9" rx="2.5" ry="2.5" style="stroke:#181818;stroke-width:0.5;" width="146.2217" x="532.89" y="934.67"/><ellipse cx="547.89" cy="950.67" fill="#ADD1B2" rx="11" ry="11" style="stroke:#181818;stroke-width:1;"/><path d="M550.8588,956.3106 Q550.2806,956.6075 549.64,956.7481 Q548.9994,956.9044 548.2963,956.9044 Q545.7963,956.9044 544.4681,955.2638 Q543.1556,953.6075 543.1556,950.4825 Q543.1556,947.3575 544.4681,945.7013 Q545.7963,944.045 548.2963,944.045 Q548.9994,944.045 549.64,944.2013 Q550.2963,944.3575 550.8588,944.6544 L550.8588,947.3731 Q550.2338,946.795 549.64,946.5294 Q549.0463,946.2481 548.4213,946.2481 Q547.0775,946.2481 546.39,947.3263 Q545.7025,948.3888 545.7025,950.4825 Q545.7025,952.5763 546.39,953.6544 Q547.0775,954.7169 548.4213,954.7169 Q549.0463,954.7169 549.64,954.4513 Q550.2338,954.17 550.8588,953.5919 L550.8588,956.3106 Z " fill="#000000"/><text fill="#000000" font-family="sans-serif" font-size="14" lengthAdjust="spacing" textLength="114.2217" x="561.89" y="955.5167">ConceptScheme</text><line style="stroke:#181818;stroke-width:0.5;" x1="533.89" x2="678.1117" y1="966.67" y2="966.67"/><line style="stroke:#181818;stroke-width:0.5;" x1="533.89" x2="678.1117" y1="974.67" y2="974.67"/></g><!--class c10--><g id="elem_c10"><rect codeLine="41" fill="#F1F1F1" height="64.2969" id="c10" rx="2.5" ry="2.5" style="stroke:#181818;stroke-width:0.5;" width="156.2246" x="651.89" y="400.19"/><ellipse cx="687.8396" cy="416.19" fill="#ADD1B2" rx="11" ry="11" style="stroke:#181818;stroke-width:1;"/><path d="M690.8084,421.8306 Q690.2302,422.1275 689.5896,422.2681 Q688.949,422.4244 688.2459,422.4244 Q685.7459,422.4244 684.4177,420.7837 Q683.1052,419.1275 683.1052,416.0025 Q683.1052,412.8775 684.4177,411.2212 Q685.7459,409.565 688.2459,409.565 Q688.949,409.565 689.5896,409.7212 Q690.2459,409.8775 690.8084,410.1744 L690.8084,412.8931 Q690.1834,412.315 689.5896,412.0494 Q688.9959,411.7681 688.3709,411.7681 Q687.0271,411.7681 686.3396,412.8462 Q685.6521,413.9087 685.6521,416.0025 Q685.6521,418.0962 686.3396,419.1744 Q687.0271,420.2369 688.3709,420.2369 Q688.9959,420.2369 689.5896,419.9712 Q690.1834,419.69 690.8084,419.1119 L690.8084,421.8306 Z " fill="#000000"/><text fill="#000000" font-family="sans-serif" font-size="14" lengthAdjust="spacing" textLength="77.6699" x="706.4951" y="421.0367">CreditPoint</text><line style="stroke:#181818;stroke-width:0.5;" x1="652.89" x2="807.1146" y1="432.19" y2="432.19"/><rect fill="none" height="6" style="stroke:#C82930;stroke-width:1;" width="6" x="659.89" y="442.8384"/><text fill="#000000" font-family="sans-serif" font-size="14" lengthAdjust="spacing" textLength="130.2246" x="671.89" y="449.1851">point: double [1,1]</text><line style="stroke:#181818;stroke-width:0.5;" x1="652.89" x2="807.1146" y1="456.4869" y2="456.4869"/></g><!--class c13--><g id="elem_c13"><rect codeLine="46" fill="#F1F1F1" height="48" id="c13" rx="2.5" ry="2.5" style="stroke:#181818;stroke-width:0.5;" width="264.8594" x="969.57" y="643.93"/><ellipse cx="984.57" cy="659.93" fill="#ADD1B2" rx="11" ry="11" style="stroke:#181818;stroke-width:1;"/><path d="M987.5388,665.5706 Q986.9606,665.8675 986.32,666.0081 Q985.6794,666.1644 984.9763,666.1644 Q982.4763,666.1644 981.1481,664.5238 Q979.8356,662.8675 979.8356,659.7425 Q979.8356,656.6175 981.1481,654.9613 Q982.4763,653.305 984.9763,653.305 Q985.6794,653.305 986.32,653.4613 Q986.9763,653.6175 987.5388,653.9144 L987.5388,656.6331 Q986.9138,656.055 986.32,655.7894 Q985.7263,655.5081 985.1013,655.5081 Q983.7575,655.5081 983.07,656.5863 Q982.3825,657.6488 982.3825,659.7425 Q982.3825,661.8363 983.07,662.9144 Q983.7575,663.9769 985.1013,663.9769 Q985.7263,663.9769 986.32,663.7113 Q986.9138,663.43 987.5388,662.8519 L987.5388,665.5706 Z " fill="#000000"/><text fill="#000000" font-family="sans-serif" font-size="14" lengthAdjust="spacing" textLength="232.8594" x="998.57" y="664.7767">LearningEntitlementSpecification</text><line style="stroke:#181818;stroke-width:0.5;" x1="970.57" x2="1233.4294" y1="675.93" y2="675.93"/><line style="stroke:#181818;stroke-width:0.5;" x1="970.57" x2="1233.4294" y1="683.93" y2="683.93"/></g><!--class c14--><g id="elem_c14"><rect codeLine="51" fill="#F1F1F1" height="64.2969" id="c14" rx="2.5" ry="2.5" style="stroke:#181818;stroke-width:0.5;" width="177.2842" x="1585.36" y="7"/><ellipse cx="1600.36" cy="23" fill="#ADD1B2" rx="11" ry="11" style="stroke:#181818;stroke-width:1;"/><path d="M1603.3288,28.6406 Q1602.7506,28.9375 1602.11,29.0781 Q1601.4694,29.2344 1600.7663,29.2344 Q1598.2663,29.2344 1596.9381,27.5938 Q1595.6256,25.9375 1595.6256,22.8125 Q1595.6256,19.6875 1596.9381,18.0313 Q1598.2663,16.375 1600.7663,16.375 Q1601.4694,16.375 1602.11,16.5313 Q1602.7663,16.6875 1603.3288,16.9844 L1603.3288,19.7031 Q1602.7038,19.125 1602.11,18.8594 Q1601.5163,18.5781 1600.8913,18.5781 Q1599.5475,18.5781 1598.86,19.6563 Q1598.1725,20.7188 1598.1725,22.8125 Q1598.1725,24.9063 1598.86,25.9844 Q1599.5475,27.0469 1600.8913,27.0469 Q1601.5163,27.0469 1602.11,26.7813 Q1602.7038,26.5 1603.3288,25.9219 L1603.3288,28.6406 Z " fill="#000000"/><text fill="#000000" font-family="sans-serif" font-size="14" lengthAdjust="spacing" textLength="145.2842" x="1614.36" y="27.8467">LearningOpportunity</text><line style="stroke:#181818;stroke-width:0.5;" x1="1586.36" x2="1761.6442" y1="39" y2="39"/><rect fill="none" height="6" style="stroke:#C82930;stroke-width:1;" width="6" x="1593.36" y="49.6484"/><text fill="#000000" font-family="sans-serif" font-size="14" lengthAdjust="spacing" textLength="144.2793" x="1605.36" y="55.9951">title: langString [1,*]</text><line style="stroke:#181818;stroke-width:0.5;" x1="1586.36" x2="1761.6442" y1="63.2969" y2="63.2969"/></g><!--class c15--><g id="elem_c15"><rect codeLine="56" fill="#F1F1F1" height="64.2969" id="c15" rx="2.5" ry="2.5" style="stroke:#181818;stroke-width:0.5;" width="170.2793" x="1006.86" y="148.29"/><ellipse cx="1044.4123" cy="164.29" fill="#ADD1B2" rx="11" ry="11" style="stroke:#181818;stroke-width:1;"/><path d="M1047.381,169.9306 Q1046.8029,170.2275 1046.1623,170.3681 Q1045.5217,170.5244 1044.8185,170.5244 Q1042.3185,170.5244 1040.9904,168.8837 Q1039.6779,167.2275 1039.6779,164.1025 Q1039.6779,160.9775 1040.9904,159.3212 Q1042.3185,157.665 1044.8185,157.665 Q1045.5217,157.665 1046.1623,157.8212 Q1046.8185,157.9775 1047.381,158.2744 L1047.381,160.9931 Q1046.756,160.415 1046.1623,160.1494 Q1045.5685,159.8681 1044.9435,159.8681 Q1043.5998,159.8681 1042.9123,160.9462 Q1042.2248,162.0087 1042.2248,164.1025 Q1042.2248,166.1962 1042.9123,167.2744 Q1043.5998,168.3369 1044.9435,168.3369 Q1045.5685,168.3369 1046.1623,168.0712 Q1046.756,167.79 1047.381,167.2119 L1047.381,169.9306 Z " fill="#000000"/><text fill="#000000" font-family="sans-serif" font-size="14" lengthAdjust="spacing" textLength="88.1631" x="1063.4239" y="169.1367">Qualification</text><line style="stroke:#181818;stroke-width:0.5;" x1="1007.86" x2="1176.1393" y1="180.29" y2="180.29"/><rect fill="none" height="6" style="stroke:#C82930;stroke-width:1;" width="6" x="1014.86" y="190.9384"/><text fill="#000000" font-family="sans-serif" font-size="14" lengthAdjust="spacing" textLength="144.2793" x="1026.86" y="197.2851">title: langString [1,*]</text><line style="stroke:#181818;stroke-width:0.5;" x1="1007.86" x2="1176.1393" y1="204.5869" y2="204.5869"/></g><!--class c16--><g id="elem_c16"><rect codeLine="61" fill="#F1F1F1" height="64.2969" id="c16" rx="2.5" ry="2.5" style="stroke:#181818;stroke-width:0.5;" width="170.2793" x="451.86" y="494.48"/><ellipse cx="472.761" cy="510.48" fill="#ADD1B2" rx="11" ry="11" style="stroke:#181818;stroke-width:1;"/><path d="M475.7297,516.1206 Q475.1516,516.4175 474.511,516.5581 Q473.8704,516.7144 473.1672,516.7144 Q470.6672,516.7144 469.3391,515.0738 Q468.0266,513.4175 468.0266,510.2925 Q468.0266,507.1675 469.3391,505.5113 Q470.6672,503.855 473.1672,503.855 Q473.8704,503.855 474.511,504.0113 Q475.1672,504.1675 475.7297,504.4644 L475.7297,507.1831 Q475.1047,506.605 474.511,506.3394 Q473.9172,506.0581 473.2922,506.0581 Q471.9485,506.0581 471.261,507.1363 Q470.5735,508.1988 470.5735,510.2925 Q470.5735,512.3863 471.261,513.4644 Q471.9485,514.5269 473.2922,514.5269 Q473.9172,514.5269 474.511,514.2613 Q475.1047,513.98 475.7297,513.4019 L475.7297,516.1206 Z " fill="#000000"/><text fill="#000000" font-family="sans-serif" font-size="14" lengthAdjust="spacing" textLength="125.166" x="488.0723" y="515.3267">LearningOutcome</text><line style="stroke:#181818;stroke-width:0.5;" x1="452.86" x2="621.1393" y1="526.48" y2="526.48"/><rect fill="none" height="6" style="stroke:#C82930;stroke-width:1;" width="6" x="459.86" y="537.1284"/><text fill="#000000" font-family="sans-serif" font-size="14" lengthAdjust="spacing" textLength="144.2793" x="471.86" y="543.4751">title: langString [1,*]</text><line style="stroke:#181818;stroke-width:0.5;" x1="452.86" x2="621.1393" y1="550.7769" y2="550.7769"/></g><!--class c17--><g id="elem_c17"><rect codeLine="66" fill="#F1F1F1" height="48" id="c17" rx="2.5" ry="2.5" style="stroke:#181818;stroke-width:0.5;" width="91.459" x="1472.27" y="643.93"/><ellipse cx="1487.27" cy="659.93" fill="#ADD1B2" rx="11" ry="11" style="stroke:#181818;stroke-width:1;"/><path d="M1490.2388,665.5706 Q1489.6606,665.8675 1489.02,666.0081 Q1488.3794,666.1644 1487.6763,666.1644 Q1485.1763,666.1644 1483.8481,664.5238 Q1482.5356,662.8675 1482.5356,659.7425 Q1482.5356,656.6175 1483.8481,654.9613 Q1485.1763,653.305 1487.6763,653.305 Q1488.3794,653.305 1489.02,653.4613 Q1489.6763,653.6175 1490.2388,653.9144 L1490.2388,656.6331 Q1489.6138,656.055 1489.02,655.7894 Q1488.4263,655.5081 1487.8013,655.5081 Q1486.4575,655.5081 1485.77,656.5863 Q1485.0825,657.6488 1485.0825,659.7425 Q1485.0825,661.8363 1485.77,662.9144 Q1486.4575,663.9769 1487.8013,663.9769 Q1488.4263,663.9769 1489.02,663.7113 Q1489.6138,663.43 1490.2388,662.8519 L1490.2388,665.5706 Z " fill="#000000"/><text fill="#000000" font-family="sans-serif" font-size="14" lengthAdjust="spacing" textLength="59.459" x="1501.27" y="664.7767">Location</text><line style="stroke:#181818;stroke-width:0.5;" x1="1473.27" x2="1562.729" y1="675.93" y2="675.93"/><line style="stroke:#181818;stroke-width:0.5;" x1="1473.27" x2="1562.729" y1="683.93" y2="683.93"/></g><!--class c18--><g id="elem_c18"><rect codeLine="71" fill="#F1F1F1" height="64.2969" id="c18" rx="2.5" ry="2.5" style="stroke:#181818;stroke-width:0.5;" width="150.4209" x="1637.79" y="297.74"/><ellipse cx="1662.6623" cy="313.74" fill="#ADD1B2" rx="11" ry="11" style="stroke:#181818;stroke-width:1;"/><path d="M1665.6311,319.3806 Q1665.0529,319.6775 1664.4123,319.8181 Q1663.7717,319.9744 1663.0686,319.9744 Q1660.5686,319.9744 1659.2404,318.3338 Q1657.9279,316.6775 1657.9279,313.5525 Q1657.9279,310.4275 1659.2404,308.7713 Q1660.5686,307.115 1663.0686,307.115 Q1663.7717,307.115 1664.4123,307.2713 Q1665.0686,307.4275 1665.6311,307.7244 L1665.6311,310.4431 Q1665.0061,309.865 1664.4123,309.5994 Q1663.8186,309.3181 1663.1936,309.3181 Q1661.8498,309.3181 1661.1623,310.3963 Q1660.4748,311.4588 1660.4748,313.5525 Q1660.4748,315.6463 1661.1623,316.7244 Q1661.8498,317.7869 1663.1936,317.7869 Q1663.8186,317.7869 1664.4123,317.5213 Q1665.0061,317.24 1665.6311,316.6619 L1665.6311,319.3806 Z " fill="#000000"/><text fill="#000000" font-family="sans-serif" font-size="14" lengthAdjust="spacing" textLength="96.4824" x="1678.8562" y="318.5867">WebResource</text><line style="stroke:#181818;stroke-width:0.5;" x1="1638.79" x2="1787.2109" y1="329.74" y2="329.74"/><rect fill="none" height="6" style="stroke:#C82930;stroke-width:1;" width="6" x="1645.79" y="340.3884"/><text fill="#000000" font-family="sans-serif" font-size="14" lengthAdjust="spacing" textLength="124.4209" x="1657.79" y="346.7351">URL: anyURI [1,1]</text><line style="stroke:#181818;stroke-width:0.5;" x1="1638.79" x2="1787.2109" y1="354.0369" y2="354.0369"/></g><!--link c1 to c2--><g id="link_c1_c2"><path codeLine="77" d="M1252.51,370.6 C1223.46,386.08 1197,400.19 1197,400.19 C1197,400.19 1197,464.48 1197,464.48 C1197,464.48 1252,635.78 1252,635.78 C1252,635.78 1252,700.08 1252,700.08 C1252,700.08 1126,730.08 1126,730.08 C1126,730.08 1059,747.08 1059,747.08 C1059,747.08 860.141,777.4926 725.951,798.0226 " fill="none" id="c1-to-c2" style="stroke:#181818;stroke-width:1;"/><polygon fill="#181818" points="720.02,798.93,729.5214,801.5229,724.9625,798.1738,728.3116,793.6149,720.02,798.93" style="stroke:#181818;stroke-width:1;"/><text fill="#000000" font-family="sans-serif" font-size="13" lengthAdjust="spacing" textLength="63.9907" x="1244" y="601.8469">type [1,1]</text></g><!--link c1 to c4--><g id="link_c1_c4"><path codeLine="78" d="M1436.78,362.61 C1452.24,367.08 1463,370.19 1463,370.19 C1463,370.19 1581,400.19 1581,400.19 C1581,400.19 1596.9291,451.4104 1608.4791,488.5704 " fill="none" id="c1-to-c4" style="stroke:#181818;stroke-width:1;"/><polygon fill="#181818" points="1610.26,494.3,1611.4084,484.5183,1608.7759,489.5253,1603.769,486.8928,1610.26,494.3" style="stroke:#181818;stroke-width:1;"/><text fill="#000000" font-family="sans-serif" font-size="13" lengthAdjust="spacing" textLength="114.188" x="1601" y="436.8969">organisation [1,*]</text></g><!--link c1 to c4--><g id="link_c1_c4"><path codeLine="80" d="M1342.46,370.61 C1357.79,409.99 1379,464.48 1379,464.48 C1379,464.48 1454.2743,483.5845 1522.3843,500.8645 " fill="none" id="c1-to-c4-1" style="stroke:#181818;stroke-width:1;"/><polygon fill="#181818" points="1528.2,502.34,1520.46,496.2496,1523.3535,501.1104,1518.4927,504.0039,1528.2,502.34" style="stroke:#181818;stroke-width:1;"/><text fill="#000000" font-family="sans-serif" font-size="13" lengthAdjust="spacing" textLength="192.7593" x="1380" y="436.8969">accrediting organisation [1,1]</text></g><!--link c1 to c5--><g id="link_c1_c5"><path codeLine="79" d="M1436.66,367.1 C1442.48,369.02 1446,370.19 1446,370.19 C1446,370.19 1724,400.19 1724,400.19 C1724,400.19 1729,494.48 1729,494.48 C1729,494.48 1729,558.78 1729,558.78 C1729,558.78 1720,700.08 1720,700.08 C1720,700.08 1671.8951,739.2045 1630.4651,772.8945 " fill="none" id="c1-to-c5" style="stroke:#181818;stroke-width:1;"/><polygon fill="#181818" points="1625.81,776.68,1635.3163,774.1052,1629.6893,773.5255,1630.2691,767.8984,1625.81,776.68" style="stroke:#181818;stroke-width:1;"/><text fill="#000000" font-family="sans-serif" font-size="13" lengthAdjust="spacing" textLength="93.2915" x="1728" y="601.8469">identifier [0,1]</text></g><!--link c7 to c8--><g id="link_c7_c8"><path codeLine="81" d="M1080.85,353.99 C1052.88,411.93 982,558.78 982,558.78 C982,558.78 645,588.78 645,588.78 C645,588.78 549.5199,614.0734 465.6499,636.2934 " fill="none" id="c7-to-c8" style="stroke:#181818;stroke-width:1;"/><polygon fill="#181818" points="459.85,637.83,469.5743,639.3917,464.6833,636.5495,467.5255,631.6585,459.85,637.83" style="stroke:#181818;stroke-width:1;"/><text fill="#000000" font-family="sans-serif" font-size="13" lengthAdjust="spacing" textLength="113.3501" x="1014" y="531.1969">more information</text></g><!--link c7 to c5--><g id="link_c7_c5"><path codeLine="82" d="M1112.21,354.16 C1145.44,392.43 1208,464.48 1208,464.48 C1208,464.48 1353,588.78 1353,588.78 C1353,588.78 1455,700.08 1455,700.08 C1455,700.08 1495.6666,738.8506 1531.0166,772.5406 " fill="none" id="c7-to-c5" style="stroke:#181818;stroke-width:1;"/><polygon fill="#181818" points="1535.36,776.68,1531.6045,767.5753,1531.7405,773.2305,1526.0853,773.3664,1535.36,776.68" style="stroke:#181818;stroke-width:1;"/><text fill="#000000" font-family="sans-serif" font-size="13" lengthAdjust="spacing" textLength="93.2915" x="1370" y="601.8469">identifier [0,1]</text></g><!--link c7 to c4--><g id="link_c7_c4"><path codeLine="83" d="M1130.26,354.35 C1163.04,374.45 1205,400.19 1205,400.19 C1205,400.19 1245,464.48 1245,464.48 C1245,464.48 1411.3282,491.6045 1522.3382,509.7045 " fill="none" id="c7-to-c4" style="stroke:#181818;stroke-width:1;"/><polygon fill="#181818" points="1528.26,510.67,1520.021,505.2738,1523.3252,509.8654,1518.7336,513.1696,1528.26,510.67" style="stroke:#181818;stroke-width:1;"/><text fill="#000000" font-family="sans-serif" font-size="13" lengthAdjust="spacing" textLength="96.5479" x="1246" y="436.8969">awarding body</text></g><!--link c2 to c9--><g id="link_c2_c9"><path codeLine="84" d="M606,857.92 C606,882.53 606,907.35 606,928.17 " fill="none" id="c2-to-c9" style="stroke:#181818;stroke-width:1;"/><polygon fill="#181818" points="606,934.17,610,925.17,606,929.17,602,925.17,606,934.17" style="stroke:#181818;stroke-width:1;"/><text fill="#000000" font-family="sans-serif" font-size="13" lengthAdjust="spacing" textLength="66.8027" x="607" y="900.7369">in scheme</text></g><!--link c10 to c2--><g id="link_c10_c2"><path codeLine="85" d="M721.58,464.98 C702.77,535.64 659,700.08 659,700.08 C659,700.08 641.939,737.5306 626.579,771.2206 " fill="none" id="c10-to-c2" style="stroke:#181818;stroke-width:1;"/><polygon fill="#181818" points="624.09,776.68,631.4631,770.1503,626.1642,772.1305,624.184,766.8316,624.09,776.68" style="stroke:#181818;stroke-width:1;"/><text fill="#000000" font-family="sans-serif" font-size="13" lengthAdjust="spacing" textLength="104.9585" x="689" y="601.8469">framework [1,1]</text></g><!--link c13 to c2--><g id="link_c13_c2"><path codeLine="86" d="M1023.13,692.37 C941.41,716.67 818.6314,753.1707 725.8314,780.7507 " fill="none" id="c13-to-c2" style="stroke:#181818;stroke-width:1;"/><polygon fill="#181818" points="720.08,782.46,729.8466,783.7303,724.8728,781.0356,727.5675,776.0618,720.08,782.46" style="stroke:#181818;stroke-width:1;"/><text fill="#000000" font-family="sans-serif" font-size="13" lengthAdjust="spacing" textLength="161.1543" x="885" y="743.1469">limit national occupation</text></g><!--link c13 to c5--><g id="link_c13_c5"><path codeLine="87" d="M1168.78,692.39 C1217.84,709.64 1276,730.08 1276,730.08 C1276,730.08 1312,747.08 1312,747.08 C1312,747.08 1361.3152,759.972 1421.2752,775.652 " fill="none" id="c13-to-c5" style="stroke:#181818;stroke-width:1;"/><polygon fill="#181818" points="1427.08,777.17,1419.3848,771.0231,1422.2427,775.905,1417.3608,778.7629,1427.08,777.17" style="stroke:#181818;stroke-width:1;"/><text fill="#000000" font-family="sans-serif" font-size="13" lengthAdjust="spacing" textLength="93.2915" x="1313" y="743.1469">identifier [0,1]</text></g><!--link c14 to c15--><g id="link_c14_c15"><path codeLine="88" d="M1584.97,61.45 C1474.16,87.98 1292.0751,131.5529 1183.0651,157.6529 " fill="none" id="c14-to-c15" style="stroke:#181818;stroke-width:1;"/><polygon fill="#181818" points="1177.23,159.05,1186.914,160.8444,1182.0926,157.8858,1185.0512,153.0643,1177.23,159.05" style="stroke:#181818;stroke-width:1;"/><text fill="#000000" font-family="sans-serif" font-size="13" lengthAdjust="spacing" textLength="114.8354" x="1419" y="114.3569">qualification [1,1]</text></g><!--link c14 to c4--><g id="link_c14_c4"><path codeLine="89" d="M1690.72,71.74 C1726.24,138.86 1806,289.59 1806,289.59 C1806,289.59 1806,370.19 1806,370.19 C1806,370.19 1750,464.48 1750,464.48 C1750,464.48 1724.1898,476.627 1692.3298,491.607 " fill="none" id="c14-to-c4" style="stroke:#181818;stroke-width:1;"/><polygon fill="#181818" points="1686.9,494.16,1696.7466,493.9504,1691.4248,492.0325,1693.3427,486.7107,1686.9,494.16" style="stroke:#181818;stroke-width:1;"/><text fill="#000000" font-family="sans-serif" font-size="13" lengthAdjust="spacing" textLength="110.6143" x="1790" y="255.6569">provided by [1,*]</text></g><!--link c14 to c5--><g id="link_c14_c5"><path codeLine="90" d="M1761.59,71.76 C1875.48,112.85 2060,179.44 2060,179.44 C2060,179.44 2060,179.44 2060,668.93 C2060,668.93 1855.8686,731.2483 1712.8086,774.9183 " fill="none" id="c14-to-c5" style="stroke:#181818;stroke-width:1;"/><polygon fill="#181818" points="1707.07,776.67,1716.8457,777.8681,1711.8522,775.2102,1714.5101,770.2167,1707.07,776.67" style="stroke:#181818;stroke-width:1;"/><text fill="#000000" font-family="sans-serif" font-size="13" lengthAdjust="spacing" textLength="93.2915" x="2061" y="436.8969">identifier [0,1]</text></g><!--link c14 to c2--><g id="link_c14_c2"><path codeLine="91" d="M1584.91,47.59 C1239.26,76.45 6,179.44 6,179.44 C6,179.44 6,179.44 6,668.93 C6,668.93 234,747.08 234,747.08 C234,747.08 376.6115,773.6412 485.9615,794.0112 " fill="none" id="c14-to-c2" style="stroke:#181818;stroke-width:1;"/><polygon fill="#181818" points="491.86,795.11,483.7447,789.5295,486.9446,794.1943,482.2797,797.3942,491.86,795.11" style="stroke:#181818;stroke-width:1;"/><text fill="#000000" font-family="sans-serif" font-size="13" lengthAdjust="spacing" textLength="145.3486" x="7" y="436.8969">default language [1,1]</text></g><!--link c16 to c2--><g id="link_c16_c2"><path codeLine="92" d="M540.67,559.26 C546.44,609.04 557,700.08 557,700.08 C557,700.08 572.751,737.4605 586.941,771.1505 " fill="none" id="c16-to-c2" style="stroke:#181818;stroke-width:1;"/><polygon fill="#181818" points="589.27,776.68,589.4629,766.833,587.3292,772.0721,582.0901,769.9384,589.27,776.68" style="stroke:#181818;stroke-width:1;"/><text fill="#000000" font-family="sans-serif" font-size="13" lengthAdjust="spacing" textLength="92.4536" x="558" y="672.4969">related skill(s)</text></g><!--link c16 to c8--><g id="link_c16_c8"><path codeLine="93" d="M460.83,559.1 C424.57,574.08 389,588.78 389,588.78 C389,588.78 379.1693,608.4815 368.3193,630.2215 " fill="none" id="c16-to-c8" style="stroke:#181818;stroke-width:1;"/><polygon fill="#181818" points="365.64,635.59,373.238,629.3234,367.8728,631.1162,366.08,625.751,365.64,635.59" style="stroke:#181818;stroke-width:1;"/><text fill="#000000" font-family="sans-serif" font-size="13" lengthAdjust="spacing" textLength="113.3501" x="390" y="601.8469">more information</text></g><!--link c16 to c5--><g id="link_c16_c5"><path codeLine="94" d="M622.33,548.42 C695.09,566.15 788,588.78 788,588.78 C788,588.78 832,747.08 832,747.08 C832,747.08 1203.6058,781.6445 1421.1558,801.8745 " fill="none" id="c16-to-c5" style="stroke:#181818;stroke-width:1;"/><polygon fill="#181818" points="1427.13,802.43,1418.539,797.6139,1422.1515,801.967,1417.7983,805.5795,1427.13,802.43" style="stroke:#181818;stroke-width:1;"/><text fill="#000000" font-family="sans-serif" font-size="13" lengthAdjust="spacing" textLength="93.2915" x="820" y="672.4969">identifier [0,1]</text></g><!--link c17 to c2--><g id="link_c17_c2"><path codeLine="95" d="M1472.03,676.67 C1374.35,693.13 1155,730.08 1155,730.08 C1155,730.08 1123,747.08 1123,747.08 C1123,747.08 878.2968,779.8728 726.0468,800.2828 " fill="none" id="c17-to-c2" style="stroke:#181818;stroke-width:1;"/><polygon fill="#181818" points="720.1,801.08,729.5517,803.8487,725.0557,800.4157,728.4887,795.9197,720.1,801.08" style="stroke:#181818;stroke-width:1;"/><text fill="#000000" font-family="sans-serif" font-size="13" lengthAdjust="spacing" textLength="111.9409" x="1156" y="743.1469">spatial code [1,*]</text></g><!--link c17 to c5--><g id="link_c17_c5"><path codeLine="96" d="M1516.85,692.39 C1516,709.64 1515,730.08 1515,730.08 C1515,730.08 1515,747.08 1515,747.08 C1515,747.08 1523.731,756.827 1537.651,772.397 " fill="none" id="c17-to-c5" style="stroke:#181818;stroke-width:1;"/><polygon fill="#181818" points="1541.65,776.87,1538.6335,767.4945,1538.3175,773.1425,1532.6695,772.8265,1541.65,776.87" style="stroke:#181818;stroke-width:1;"/><text fill="#000000" font-family="sans-serif" font-size="13" lengthAdjust="spacing" textLength="93.2915" x="1516" y="743.1469">identifier [0,1]</text></g><!--link c8 to c2--><g id="link_c8_c2"><path codeLine="97" d="M307.53,700.22 C287.11,715.26 267,730.08 267,730.08 C267,730.08 267,747.08 267,747.08 C267,747.08 387.8117,771.7678 486.2917,791.9078 " fill="none" id="c8-to-c2" style="stroke:#181818;stroke-width:1;"/><polygon fill="#181818" points="492.17,793.11,484.1539,787.3879,487.2714,792.1082,482.5511,795.2256,492.17,793.11" style="stroke:#181818;stroke-width:1;"/><text fill="#000000" font-family="sans-serif" font-size="13" lengthAdjust="spacing" textLength="82.0688" x="268" y="743.1469">subject [0,1]</text></g><!--link c8 to c2--><g id="link_c8_c2"><path codeLine="98" d="M366.44,700.26 C377.85,722 391,747.08 391,747.08 C391,747.08 434.7191,761.17 486.1791,777.75 " fill="none" id="c8-to-c2-1" style="stroke:#181818;stroke-width:1;"/><polygon fill="#181818" points="491.89,779.59,484.5503,773.0227,487.1309,778.0567,482.097,780.6373,491.89,779.59" style="stroke:#181818;stroke-width:1;"/><text fill="#000000" font-family="sans-serif" font-size="13" lengthAdjust="spacing" textLength="111.9727" x="392" y="743.1469">note format [0,1]</text></g><!--link c4 to c17--><g id="link_c4_c17"><path codeLine="99" d="M1570.59,559.1 C1547.07,574.08 1524,588.78 1524,588.78 C1524,588.78 1522.03,614.4777 1520.26,637.4977 " fill="none" id="c4-to-c17" style="stroke:#181818;stroke-width:1;"/><polygon fill="#181818" points="1519.8,643.48,1524.4782,634.8131,1520.1833,638.4947,1516.5017,634.1998,1519.8,643.48" style="stroke:#181818;stroke-width:1;"/><text fill="#000000" font-family="sans-serif" font-size="13" lengthAdjust="spacing" textLength="84.7603" x="1525" y="601.8469">location [1,*]</text></g><!--link c4 to c5--><g id="link_c4_c5"><path codeLine="100" d="M1619.14,559.07 C1617.48,619.75 1614,747.08 1614,747.08 C1614,747.08 1609.2251,756.0067 1600.9151,771.5767 " fill="none" id="c4-to-c5" style="stroke:#181818;stroke-width:1;"/><polygon fill="#181818" points="1598.09,776.87,1605.8565,770.8135,1600.4443,772.4589,1598.7988,767.0467,1598.09,776.87" style="stroke:#181818;stroke-width:1;"/><text fill="#000000" font-family="sans-serif" font-size="13" lengthAdjust="spacing" textLength="93.2915" x="1618" y="672.4969">identifier [0,1]</text></g><!--link c15 to c2--><g id="link_c15_c2"><path codeLine="101" d="M1048.5,212.73 C1027.59,227.78 1007,242.59 1007,242.59 C1007,242.59 976,289.59 976,289.59 C976,289.59 877,494.48 877,494.48 C877,494.48 877,558.78 877,558.78 C877,558.78 895,635.78 895,635.78 C895,635.78 895,700.08 895,700.08 C895,700.08 793.9362,740.7501 710.2162,774.4401 " fill="none" id="c15-to-c2" style="stroke:#181818;stroke-width:1;"/><polygon fill="#181818" points="704.65,776.68,714.4926,777.0309,709.2885,774.8134,711.506,769.6093,704.65,776.68" style="stroke:#181818;stroke-width:1;"/><text fill="#000000" font-family="sans-serif" font-size="13" lengthAdjust="spacing" textLength="91.2285" x="878" y="531.1969">thematic area</text></g><!--link c15 to c2--><g id="link_c15_c2"><path codeLine="109" d="M1006.53,192.98 C875.25,210.7 639,242.59 639,242.59 C639,242.59 385,289.59 385,289.59 C385,289.59 176,328.89 176,328.89 C176,328.89 176,328.89 176,668.93 C176,668.93 259,747.08 259,747.08 C259,747.08 384.8762,772.2149 486.0162,792.4149 " fill="none" id="c15-to-c2-1" style="stroke:#181818;stroke-width:1;"/><polygon fill="#181818" points="491.9,793.59,483.8577,787.9048,486.9968,792.6107,482.2909,795.7498,491.9,793.59" style="stroke:#181818;stroke-width:1;"/><text fill="#000000" font-family="sans-serif" font-size="13" lengthAdjust="spacing" textLength="99.5503" x="177" y="531.1969">education level</text></g><!--link c15 to c4--><g id="link_c15_c4"><path codeLine="102" d="M1177.64,199.38 C1263.8,217.42 1384,242.59 1384,242.59 C1384,242.59 1454,289.59 1454,289.59 C1454,289.59 1523,370.19 1523,370.19 C1523,370.19 1724,400.19 1724,400.19 C1724,400.19 1724,464.48 1724,464.48 C1724,464.48 1704.1829,476.14 1678.6929,491.12 " fill="none" id="c15-to-c4" style="stroke:#181818;stroke-width:1;"/><polygon fill="#181818" points="1673.52,494.16,1683.3059,493.0486,1677.8307,491.6267,1679.2526,486.1514,1673.52,494.16" style="stroke:#181818;stroke-width:1;"/><text fill="#000000" font-family="sans-serif" font-size="13" lengthAdjust="spacing" textLength="95.272" x="1524" y="334.4569">publisher [1,1]</text></g><!--link c15 to c18--><g id="link_c15_c18"><path codeLine="103" d="M1177.44,194.64 C1293.85,212.61 1488,242.59 1488,242.59 C1488,242.59 1524,259.59 1524,259.59 C1524,259.59 1611,289.59 1611,289.59 C1611,289.59 1616.7803,291.8251 1631.9303,297.6551 " fill="none" id="c15-to-c18" style="stroke:#181818;stroke-width:1;"/><polygon fill="#181818" points="1637.53,299.81,1630.567,292.8446,1632.8636,298.0143,1627.6939,300.3108,1637.53,299.81" style="stroke:#181818;stroke-width:1;"/><text fill="#000000" font-family="sans-serif" font-size="13" lengthAdjust="spacing" textLength="144.3076" x="1525" y="255.6569">other documents [1,*]</text></g><!--link c15 to c18--><g id="link_c15_c18"><path codeLine="107" d="M1177.56,190.43 C1339.34,207.43 1674,242.59 1674,242.59 C1674,242.59 1685.0984,267.1527 1696.2284,291.7727 " fill="none" id="c15-to-c18-1" style="stroke:#181818;stroke-width:1;"/><polygon fill="#181818" points="1698.7,297.24,1698.6375,287.3913,1696.6403,292.6839,1691.3477,290.6868,1698.7,297.24" style="stroke:#181818;stroke-width:1;"/><text fill="#000000" font-family="sans-serif" font-size="13" lengthAdjust="spacing" textLength="69.3228" x="1682" y="255.6569">homepage</text></g><!--link c15 to c8--><g id="link_c15_c8"><path codeLine="104" d="M1006.68,194.49 C889.2,212.44 692,242.59 692,242.59 C692,242.59 563,289.59 563,289.59 C563,289.59 327,400.19 327,400.19 C327,400.19 327,464.48 327,464.48 C327,464.48 339.2626,572.3984 345.7326,629.3384 " fill="none" id="c15-to-c8" style="stroke:#181818;stroke-width:1;"/><polygon fill="#181818" points="346.41,635.3,349.3683,625.9059,345.8455,630.332,341.4195,626.8092,346.41,635.3" style="stroke:#181818;stroke-width:1;"/><text fill="#000000" font-family="sans-serif" font-size="13" lengthAdjust="spacing" textLength="214.8745" x="328" y="436.8969">learning outcome summary [0,1]</text></g><!--link c15 to c16--><g id="link_c15_c16"><path codeLine="105" d="M1006.76,197.19 C908.69,215.31 761,242.59 761,242.59 C761,242.59 587,289.59 587,289.59 C587,289.59 551,464.48 551,464.48 C551,464.48 548.9515,473.4519 545.5015,488.4919 " fill="none" id="c15-to-c16" style="stroke:#181818;stroke-width:1;"/><polygon fill="#181818" points="544.16,494.34,550.071,486.4622,545.2779,489.4666,542.2735,484.6735,544.16,494.34" style="stroke:#181818;stroke-width:1;"/><text fill="#000000" font-family="sans-serif" font-size="13" lengthAdjust="spacing" textLength="147.6274" x="588" y="334.4569">learning outcome [1,*]</text></g><!--link c15 to c5--><g id="link_c15_c5"><path codeLine="106" d="M1177.45,189.22 C1358.45,205.69 1764,242.59 1764,242.59 C1764,242.59 1806,289.59 1806,289.59 C1806,289.59 1912,431.33 1912,431.33 C1912,431.33 1912,431.33 1912,668.93 C1912,668.93 1771.9317,730.5832 1672.7017,774.2532 " fill="none" id="c15-to-c5" style="stroke:#181818;stroke-width:1;"/><polygon fill="#181818" points="1667.21,776.67,1677.0588,776.7059,1671.7864,774.656,1673.8363,769.3836,1667.21,776.67" style="stroke:#181818;stroke-width:1;"/><text fill="#000000" font-family="sans-serif" font-size="13" lengthAdjust="spacing" textLength="93.2915" x="1913" y="531.1969">identifier [0,1]</text></g><!--link c15 to c13--><g id="link_c15_c13"><path codeLine="108" d="M1060.47,213.02 C1028.59,244.94 984,289.59 984,289.59 C984,289.59 984,370.19 984,370.19 C984,370.19 1045,464.48 1045,464.48 C1045,464.48 1140,494.48 1140,494.48 C1140,494.48 1140,558.78 1140,558.78 C1140,558.78 1123.4079,605.9889 1112.2379,637.7989 " fill="none" id="c15-to-c13" style="stroke:#181818;stroke-width:1;"/><polygon fill="#181818" points="1110.25,643.46,1117.0059,636.2936,1111.9066,638.7424,1109.4578,633.6431,1110.25,643.46" style="stroke:#181818;stroke-width:1;"/><text fill="#000000" font-family="sans-serif" font-size="13" lengthAdjust="spacing" textLength="68.4531" x="1046" y="436.8969">entitles To</text></g><!--link c15 to c10--><g id="link_c15_c10"><path codeLine="110" d="M1006.67,197.75 C911.87,215.86 772,242.59 772,242.59 C772,242.59 750.2937,340.1533 738.3337,393.8833 " fill="none" id="c15-to-c10" style="stroke:#181818;stroke-width:1;"/><polygon fill="#181818" points="737.03,399.74,742.8899,391.8241,738.1164,394.8594,735.081,390.0859,737.03,399.74" style="stroke:#181818;stroke-width:1;"/><text fill="#000000" font-family="sans-serif" font-size="13" lengthAdjust="spacing" textLength="81.5103" x="773" y="255.6569">credit points</text></g><!--link c15 to c7--><g id="link_c15_c7"><path codeLine="111" d="M1092,213.07 C1092,240.83 1092,274.55 1092,299.52 " fill="none" id="c15-to-c7" style="stroke:#181818;stroke-width:1;"/><polygon fill="#181818" points="1092,305.52,1096,296.52,1092,300.52,1088,296.52,1092,305.52" style="stroke:#181818;stroke-width:1;"/><text fill="#000000" font-family="sans-serif" font-size="13" lengthAdjust="spacing" textLength="172.834" x="1093" y="255.6569">awarding information [1,*]</text></g><!--link c15 to c1--><g id="link_c15_c1"><path codeLine="112" d="M1177.4,210.14 C1224.69,226.02 1274,242.59 1274,242.59 C1274,242.59 1285.6008,261.4767 1299.5308,284.1667 " fill="none" id="c15-to-c1" style="stroke:#181818;stroke-width:1;"/><polygon fill="#181818" points="1302.67,289.28,1301.3701,279.5173,1300.054,285.0189,1294.5524,283.7029,1302.67,289.28" style="stroke:#181818;stroke-width:1;"/><text fill="#000000" font-family="sans-serif" font-size="13" lengthAdjust="spacing" textLength="85.4331" x="1286" y="255.6569">accreditation</text></g><!--SRC=[ZLLDJnin4BtdLunoQYkGif2GmA4IGZqWeTBoeHuG1ySx2IvUUsjxeQkg_vsnlPlrReZ81IdxPkQzUJCUxBDG9JEi02aKkhf4ABMi_O_HY4jcBOpFEJUO2yUSq6eCp0BFuD_e4F1lAKmDENDu5lxUYGBXONAGFHBgX9FqNJArldL6g3KyP0TV7aV_HvlA5rfnB5siUHHgCkdGAA9wGL2iw1SWVFjRKk_Qh9aIDX4w3KMtahQKNEQed5W9D35l5l8iVqBgYArHyVgTAasdJLZ4ROeb3EUlpEI4N9UbDgvImjMHQavKQU1txJ0YYoYUVjDqo1OczxBpDiY99Ku7nI_297zeeHhNiqaWAVqN6gAkbX9zvRxuAsH64USt5QPQa5ct9N8oZATRSJnWQzEsUixYNFPOaPyLaqEQsRx96_xASTrQaftidQvxjCD1_SBb3LfT6TvMZWExlxaw0wRg-vlBnCaHFPh3mwz-pyzW75vQ0CSROEe1dQnmLDG5p7o0s6ngtB51FciUgszeM2i4psFmmWSNsY08jTAcY44Tlejhdd8rAmrBdTS-zoY2fo5NjU_2AvmalQ_etE2hDi-T0SS9B4KX7AWWY4dGd5VbHbqRkTEAQSIp4F0dNPwERPhqK1hzGdLoMDQTtTFzI8BS75UiaYuiKaMNegCvIQ8CIhgFETXd8UKd-ncIW9sZQ0DswfWd3DQRH7vndMFNoGVJNAG5gkLlvEvTBDoWg6s3jqxFmz0qxw_iHnREqiT0QqBP79X11WaQ9qGdITWddvpraxFWd7OUopMl_5coNU-pn5xPN0BGyHI0hOg2qJ-leI3o_BtmOT6F-ehIdYYrz3kH8iSUmNX8BTnf6Dg1UTMOAV45PIzvuWFY2uytswRmlFSgqsqQwi_IMz4it1i0]--></g></svg>