<svg xmlns="http://www.w3.org/2000/svg" xmlns:xlink="http://www.w3.org/1999/xlink" contentStyleType="text/css" data-diagram-type="CLASS" height="855px" preserveAspectRatio="none" style="width:2214px;height:855px;background:#FFFFFF;" version="1.1" viewBox="0 0 2214 855" width="2214px" zoomAndPan="magnify"><defs/><g><!--class c1--><g id="elem_c1"><rect codeLine="3" fill="#F1F1F1" height="113.1875" id="c1" rx="2.5" ry="2.5" style="stroke:#181818;stroke-width:0.5;" width="218.8008" x="774.29" y="419.96"/><ellipse cx="832.9389" cy="435.96" fill="#ADD1B2" rx="11" ry="11" style="stroke:#181818;stroke-width:1;"/><path d="M835.9077,441.6006 Q835.3296,441.8975 834.6889,442.0381 Q834.0483,442.1944 833.3452,442.1944 Q830.8452,442.1944 829.5171,440.5538 Q828.2046,438.8975 828.2046,435.7725 Q828.2046,432.6475 829.5171,430.9913 Q830.8452,429.335 833.3452,429.335 Q834.0483,429.335 834.6889,429.4913 Q835.3452,429.6475 835.9077,429.9444 L835.9077,432.6631 Q835.2827,432.085 834.6889,431.8194 Q834.0952,431.5381 833.4702,431.5381 Q832.1264,431.5381 831.4389,432.6163 Q830.7514,433.6788 830.7514,435.7725 Q830.7514,437.8663 831.4389,438.9444 Q832.1264,440.0069 833.4702,440.0069 Q834.0952,440.0069 834.6889,439.7413 Q835.2827,439.46 835.9077,438.8819 L835.9077,441.6006 Z " fill="#000000"/><text fill="#000000" font-family="sans-serif" font-size="14" lengthAdjust="spacing" textLength="93.0029" x="853.4389" y="440.8067">Accreditation</text><line style="stroke:#181818;stroke-width:0.5;" x1="775.29" x2="992.0908" y1="451.96" y2="451.96"/><rect fill="none" height="6" style="stroke:#C82930;stroke-width:1;" width="6" x="782.29" y="462.6084"/><text fill="#000000" font-family="sans-serif" font-size="14" lengthAdjust="spacing" textLength="192.8008" x="794.29" y="468.9551">expiry date: dateTime [0,1]</text><rect fill="none" height="6" style="stroke:#C82930;stroke-width:1;" width="6" x="782.29" y="478.9053"/><text fill="#000000" font-family="sans-serif" font-size="14" lengthAdjust="spacing" textLength="172.7031" x="794.29" y="485.252">identifier: Identifier [0,1]</text><rect fill="none" height="6" style="stroke:#C82930;stroke-width:1;" width="6" x="782.29" y="495.2022"/><text fill="#000000" font-family="sans-serif" font-size="14" lengthAdjust="spacing" textLength="144.2793" x="794.29" y="501.5489">title: langString [1,*]</text><rect fill="none" height="6" style="stroke:#C82930;stroke-width:1;" width="6" x="782.29" y="511.4991"/><text fill="#000000" font-family="sans-serif" font-size="14" lengthAdjust="spacing" textLength="135.9805" x="794.29" y="517.8457">type: Concept [1,1]</text><line style="stroke:#181818;stroke-width:0.5;" x1="775.29" x2="992.0908" y1="525.1475" y2="525.1475"/></g><!--class c2--><g id="elem_c2"><rect codeLine="11" fill="#F1F1F1" height="96.8906" id="c2" rx="2.5" ry="2.5" style="stroke:#181818;stroke-width:0.5;" width="227.3867" x="7" y="7"/><ellipse cx="87.4932" cy="23" fill="#ADD1B2" rx="11" ry="11" style="stroke:#181818;stroke-width:1;"/><path d="M90.4619,28.6406 Q89.8838,28.9375 89.2432,29.0781 Q88.6025,29.2344 87.8994,29.2344 Q85.3994,29.2344 84.0713,27.5938 Q82.7588,25.9375 82.7588,22.8125 Q82.7588,19.6875 84.0713,18.0313 Q85.3994,16.375 87.8994,16.375 Q88.6025,16.375 89.2432,16.5313 Q89.8994,16.6875 90.4619,16.9844 L90.4619,19.7031 Q89.8369,19.125 89.2432,18.8594 Q88.6494,18.5781 88.0244,18.5781 Q86.6807,18.5781 85.9932,19.6563 Q85.3057,20.7188 85.3057,22.8125 Q85.3057,24.9063 85.9932,25.9844 Q86.6807,27.0469 88.0244,27.0469 Q88.6494,27.0469 89.2432,26.7813 Q89.8369,26.5 90.4619,25.9219 L90.4619,28.6406 Z " fill="#000000"/><text fill="#000000" font-family="sans-serif" font-size="14" lengthAdjust="spacing" textLength="57.9004" x="107.9932" y="27.8467">Concept</text><line style="stroke:#181818;stroke-width:0.5;" x1="8" x2="233.3867" y1="39" y2="39"/><rect fill="none" height="6" style="stroke:#C82930;stroke-width:1;" width="6" x="15" y="49.6484"/><text fill="#000000" font-family="sans-serif" font-size="14" lengthAdjust="spacing" textLength="201.3867" x="27" y="55.9951">alternative name: langString</text><rect fill="none" height="6" style="stroke:#C82930;stroke-width:1;" width="6" x="15" y="65.9453"/><text fill="#000000" font-family="sans-serif" font-size="14" lengthAdjust="spacing" textLength="195.3301" x="27" y="72.292">in scheme: ConceptScheme</text><rect fill="none" height="6" style="stroke:#C82930;stroke-width:1;" width="6" x="15" y="82.2422"/><text fill="#000000" font-family="sans-serif" font-size="14" lengthAdjust="spacing" textLength="120.8799" x="27" y="88.5889">name: langString</text><line style="stroke:#181818;stroke-width:0.5;" x1="8" x2="233.3867" y1="95.8906" y2="95.8906"/></g><!--class c4--><g id="elem_c4"><rect codeLine="18" fill="#F1F1F1" height="80.5938" id="c4" rx="2.5" ry="2.5" style="stroke:#181818;stroke-width:0.5;" width="198.7031" x="784.34" y="610.15"/><ellipse cx="834.5944" cy="626.15" fill="#ADD1B2" rx="11" ry="11" style="stroke:#181818;stroke-width:1;"/><path d="M837.5631,631.7906 Q836.985,632.0875 836.3444,632.2281 Q835.7038,632.3844 835.0006,632.3844 Q832.5006,632.3844 831.1725,630.7438 Q829.86,629.0875 829.86,625.9625 Q829.86,622.8375 831.1725,621.1813 Q832.5006,619.525 835.0006,619.525 Q835.7038,619.525 836.3444,619.6813 Q837.0006,619.8375 837.5631,620.1344 L837.5631,622.8531 Q836.9381,622.275 836.3444,622.0094 Q835.7506,621.7281 835.1256,621.7281 Q833.7819,621.7281 833.0944,622.8063 Q832.4069,623.8688 832.4069,625.9625 Q832.4069,628.0563 833.0944,629.1344 Q833.7819,630.1969 835.1256,630.1969 Q835.7506,630.1969 836.3444,629.9313 Q836.9381,629.65 837.5631,629.0719 L837.5631,631.7906 Z " fill="#000000"/><text fill="#000000" font-family="sans-serif" font-size="14" lengthAdjust="spacing" textLength="89.6943" x="855.0944" y="630.9967">Organisation</text><line style="stroke:#181818;stroke-width:0.5;" x1="785.34" x2="982.0431" y1="642.15" y2="642.15"/><rect fill="none" height="6" style="stroke:#C82930;stroke-width:1;" width="6" x="792.34" y="652.7984"/><text fill="#000000" font-family="sans-serif" font-size="14" lengthAdjust="spacing" textLength="172.7031" x="804.34" y="659.1451">identifier: Identifier [0,1]</text><rect fill="none" height="6" style="stroke:#C82930;stroke-width:1;" width="6" x="792.34" y="669.0953"/><text fill="#000000" font-family="sans-serif" font-size="14" lengthAdjust="spacing" textLength="156.6113" x="804.34" y="675.442">name: langString [1,*]</text><line style="stroke:#181818;stroke-width:0.5;" x1="785.34" x2="982.0431" y1="682.7438" y2="682.7438"/></g><!--class c5--><g id="elem_c5"><rect codeLine="24" fill="#F1F1F1" height="80.5938" id="c5" rx="2.5" ry="2.5" style="stroke:#181818;stroke-width:0.5;" width="299.082" x="269.15" y="15.14"/><ellipse cx="382.9068" cy="31.14" fill="#ADD1B2" rx="11" ry="11" style="stroke:#181818;stroke-width:1;"/><path d="M385.8756,36.7806 Q385.2975,37.0775 384.6568,37.2181 Q384.0162,37.3744 383.3131,37.3744 Q380.8131,37.3744 379.485,35.7337 Q378.1725,34.0775 378.1725,30.9525 Q378.1725,27.8275 379.485,26.1712 Q380.8131,24.515 383.3131,24.515 Q384.0162,24.515 384.6568,24.6712 Q385.3131,24.8275 385.8756,25.1244 L385.8756,27.8431 Q385.2506,27.265 384.6568,26.9994 Q384.0631,26.7181 383.4381,26.7181 Q382.0943,26.7181 381.4068,27.7962 Q380.7193,28.8587 380.7193,30.9525 Q380.7193,33.0462 381.4068,34.1244 Q382.0943,35.1869 383.4381,35.1869 Q384.0631,35.1869 384.6568,34.9212 Q385.2506,34.64 385.8756,34.0619 L385.8756,36.7806 Z " fill="#000000"/><text fill="#000000" font-family="sans-serif" font-size="14" lengthAdjust="spacing" textLength="63.0684" x="403.4068" y="35.9867">Identifier</text><line style="stroke:#181818;stroke-width:0.5;" x1="270.15" x2="567.232" y1="47.14" y2="47.14"/><rect fill="none" height="6" style="stroke:#C82930;stroke-width:1;" width="6" x="277.15" y="57.7884"/><text fill="#000000" font-family="sans-serif" font-size="14" lengthAdjust="spacing" textLength="273.082" x="289.15" y="64.1351">scheme agency name: langString [0,1]</text><rect fill="none" height="6" style="stroke:#C82930;stroke-width:1;" width="6" x="277.15" y="74.0853"/><text fill="#000000" font-family="sans-serif" font-size="14" lengthAdjust="spacing" textLength="185.876" x="289.15" y="80.432">scheme name: string [0,1]</text><line style="stroke:#181818;stroke-width:0.5;" x1="270.15" x2="567.232" y1="87.7337" y2="87.7337"/></g><!--class c7--><g id="elem_c7"><rect codeLine="30" fill="#F1F1F1" height="80.5938" id="c7" rx="2.5" ry="2.5" style="stroke:#181818;stroke-width:0.5;" width="198.7031" x="1232.34" y="436.26"/><ellipse cx="1254.896" cy="452.26" fill="#ADD1B2" rx="11" ry="11" style="stroke:#181818;stroke-width:1;"/><path d="M1257.8647,457.9006 Q1257.2866,458.1975 1256.646,458.3381 Q1256.0053,458.4944 1255.3022,458.4944 Q1252.8022,458.4944 1251.4741,456.8538 Q1250.1616,455.1975 1250.1616,452.0725 Q1250.1616,448.9475 1251.4741,447.2913 Q1252.8022,445.635 1255.3022,445.635 Q1256.0053,445.635 1256.646,445.7913 Q1257.3022,445.9475 1257.8647,446.2444 L1257.8647,448.9631 Q1257.2397,448.385 1256.646,448.1194 Q1256.0522,447.8381 1255.4272,447.8381 Q1254.0835,447.8381 1253.396,448.9163 Q1252.7085,449.9788 1252.7085,452.0725 Q1252.7085,454.1663 1253.396,455.2444 Q1254.0835,456.3069 1255.4272,456.3069 Q1256.0522,456.3069 1256.646,456.0413 Q1257.2397,455.76 1257.8647,455.1819 L1257.8647,457.9006 Z " fill="#000000"/><text fill="#000000" font-family="sans-serif" font-size="14" lengthAdjust="spacing" textLength="149.9121" x="1270.5751" y="457.1067">AwardingOpportunity</text><line style="stroke:#181818;stroke-width:0.5;" x1="1233.34" x2="1430.0431" y1="468.26" y2="468.26"/><rect fill="none" height="6" style="stroke:#C82930;stroke-width:1;" width="6" x="1240.34" y="478.9084"/><text fill="#000000" font-family="sans-serif" font-size="14" lengthAdjust="spacing" textLength="172.7031" x="1252.34" y="485.2551">identifier: Identifier [0,1]</text><rect fill="none" height="6" style="stroke:#C82930;stroke-width:1;" width="6" x="1240.34" y="495.2053"/><text fill="#000000" font-family="sans-serif" font-size="14" lengthAdjust="spacing" textLength="164.377" x="1252.34" y="501.552">more information: Note</text><line style="stroke:#181818;stroke-width:0.5;" x1="1233.34" x2="1430.0431" y1="508.8538" y2="508.8538"/></g><!--class c8--><g id="elem_c8"><rect codeLine="36" fill="#F1F1F1" height="96.8906" id="c8" rx="2.5" ry="2.5" style="stroke:#181818;stroke-width:0.5;" width="219.0059" x="11.19" y="213.48"/><ellipse cx="99.8726" cy="229.48" fill="#ADD1B2" rx="11" ry="11" style="stroke:#181818;stroke-width:1;"/><path d="M102.8414,235.1206 Q102.2632,235.4175 101.6226,235.5581 Q100.982,235.7144 100.2789,235.7144 Q97.7789,235.7144 96.4507,234.0738 Q95.1382,232.4175 95.1382,229.2925 Q95.1382,226.1675 96.4507,224.5113 Q97.7789,222.855 100.2789,222.855 Q100.982,222.855 101.6226,223.0113 Q102.2789,223.1675 102.8414,223.4644 L102.8414,226.1831 Q102.2164,225.605 101.6226,225.3394 Q101.0289,225.0581 100.4039,225.0581 Q99.0601,225.0581 98.3726,226.1363 Q97.6851,227.1988 97.6851,229.2925 Q97.6851,231.3863 98.3726,232.4644 Q99.0601,233.5269 100.4039,233.5269 Q101.0289,233.5269 101.6226,233.2613 Q102.2164,232.98 102.8414,232.4019 L102.8414,235.1206 Z " fill="#000000"/><text fill="#000000" font-family="sans-serif" font-size="14" lengthAdjust="spacing" textLength="33.1406" x="120.3726" y="234.3267">Note</text><line style="stroke:#181818;stroke-width:0.5;" x1="12.19" x2="229.1959" y1="245.48" y2="245.48"/><rect fill="none" height="6" style="stroke:#C82930;stroke-width:1;" width="6" x="19.19" y="256.1284"/><text fill="#000000" font-family="sans-serif" font-size="14" lengthAdjust="spacing" textLength="187.6533" x="31.19" y="262.4751">note format: Concept [0,1]</text><rect fill="none" height="6" style="stroke:#C82930;stroke-width:1;" width="6" x="19.19" y="272.4253"/><text fill="#000000" font-family="sans-serif" font-size="14" lengthAdjust="spacing" textLength="193.0059" x="31.19" y="278.772">note literal: langString [1,*]</text><rect fill="none" height="6" style="stroke:#C82930;stroke-width:1;" width="6" x="19.19" y="288.7222"/><text fill="#000000" font-family="sans-serif" font-size="14" lengthAdjust="spacing" textLength="155.4492" x="31.19" y="295.0689">subject: Concept [0,1]</text><line style="stroke:#181818;stroke-width:0.5;" x1="12.19" x2="229.1959" y1="302.3706" y2="302.3706"/></g><!--class c10--><g id="elem_c10"><rect codeLine="43" fill="#F1F1F1" height="80.5938" id="c10" rx="2.5" ry="2.5" style="stroke:#181818;stroke-width:0.5;" width="206.0996" x="1465.64" y="436.26"/><ellipse cx="1525.6048" cy="452.26" fill="#ADD1B2" rx="11" ry="11" style="stroke:#181818;stroke-width:1;"/><path d="M1528.5736,457.9006 Q1527.9955,458.1975 1527.3548,458.3381 Q1526.7142,458.4944 1526.0111,458.4944 Q1523.5111,458.4944 1522.183,456.8538 Q1520.8705,455.1975 1520.8705,452.0725 Q1520.8705,448.9475 1522.183,447.2913 Q1523.5111,445.635 1526.0111,445.635 Q1526.7142,445.635 1527.3548,445.7913 Q1528.0111,445.9475 1528.5736,446.2444 L1528.5736,448.9631 Q1527.9486,448.385 1527.3548,448.1194 Q1526.7611,447.8381 1526.1361,447.8381 Q1524.7923,447.8381 1524.1048,448.9163 Q1523.4173,449.9788 1523.4173,452.0725 Q1523.4173,454.1663 1524.1048,455.2444 Q1524.7923,456.3069 1526.1361,456.3069 Q1526.7611,456.3069 1527.3548,456.0413 Q1527.9486,455.76 1528.5736,455.1819 L1528.5736,457.9006 Z " fill="#000000"/><text fill="#000000" font-family="sans-serif" font-size="14" lengthAdjust="spacing" textLength="77.6699" x="1546.1048" y="457.1067">CreditPoint</text><line style="stroke:#181818;stroke-width:0.5;" x1="1466.64" x2="1670.7396" y1="468.26" y2="468.26"/><rect fill="none" height="6" style="stroke:#C82930;stroke-width:1;" width="6" x="1473.64" y="478.9084"/><text fill="#000000" font-family="sans-serif" font-size="14" lengthAdjust="spacing" textLength="180.0996" x="1485.64" y="485.2551">framework: Concept [1,1]</text><rect fill="none" height="6" style="stroke:#C82930;stroke-width:1;" width="6" x="1473.64" y="495.2053"/><text fill="#000000" font-family="sans-serif" font-size="14" lengthAdjust="spacing" textLength="130.2246" x="1485.64" y="501.552">point: double [1,1]</text><line style="stroke:#181818;stroke-width:0.5;" x1="1466.64" x2="1670.7396" y1="508.8538" y2="508.8538"/></g><!--class c13--><g id="elem_c13"><rect codeLine="49" fill="#F1F1F1" height="80.5938" id="c13" rx="2.5" ry="2.5" style="stroke:#181818;stroke-width:0.5;" width="266.6182" x="1706.38" y="436.26"/><ellipse cx="1722.1715" cy="452.26" fill="#ADD1B2" rx="11" ry="11" style="stroke:#181818;stroke-width:1;"/><path d="M1725.1402,457.9006 Q1724.5621,458.1975 1723.9215,458.3381 Q1723.2808,458.4944 1722.5777,458.4944 Q1720.0777,458.4944 1718.7496,456.8538 Q1717.4371,455.1975 1717.4371,452.0725 Q1717.4371,448.9475 1718.7496,447.2913 Q1720.0777,445.635 1722.5777,445.635 Q1723.2808,445.635 1723.9215,445.7913 Q1724.5777,445.9475 1725.1402,446.2444 L1725.1402,448.9631 Q1724.5152,448.385 1723.9215,448.1194 Q1723.3277,447.8381 1722.7027,447.8381 Q1721.359,447.8381 1720.6715,448.9163 Q1719.984,449.9788 1719.984,452.0725 Q1719.984,454.1663 1720.6715,455.2444 Q1721.359,456.3069 1722.7027,456.3069 Q1723.3277,456.3069 1723.9215,456.0413 Q1724.5152,455.76 1725.1402,455.1819 L1725.1402,457.9006 Z " fill="#000000"/><text fill="#000000" font-family="sans-serif" font-size="14" lengthAdjust="spacing" textLength="232.8594" x="1736.3473" y="457.1067">LearningEntitlementSpecification</text><line style="stroke:#181818;stroke-width:0.5;" x1="1707.38" x2="1971.9982" y1="468.26" y2="468.26"/><rect fill="none" height="6" style="stroke:#C82930;stroke-width:1;" width="6" x="1714.38" y="478.9084"/><text fill="#000000" font-family="sans-serif" font-size="14" lengthAdjust="spacing" textLength="172.7031" x="1726.38" y="485.2551">identifier: Identifier [0,1]</text><rect fill="none" height="6" style="stroke:#C82930;stroke-width:1;" width="6" x="1714.38" y="495.2053"/><text fill="#000000" font-family="sans-serif" font-size="14" lengthAdjust="spacing" textLength="240.6182" x="1726.38" y="501.552">limit national occupation: Concept</text><line style="stroke:#181818;stroke-width:0.5;" x1="1707.38" x2="1971.9982" y1="508.8538" y2="508.8538"/></g><!--class c14--><g id="elem_c14"><rect codeLine="55" fill="#F1F1F1" height="96.8906" id="c14" rx="2.5" ry="2.5" style="stroke:#181818;stroke-width:0.5;" width="249.5967" x="803.9" y="7"/><ellipse cx="851.8063" cy="23" fill="#ADD1B2" rx="11" ry="11" style="stroke:#181818;stroke-width:1;"/><path d="M854.775,28.6406 Q854.1969,28.9375 853.5563,29.0781 Q852.9156,29.2344 852.2125,29.2344 Q849.7125,29.2344 848.3844,27.5938 Q847.0719,25.9375 847.0719,22.8125 Q847.0719,19.6875 848.3844,18.0313 Q849.7125,16.375 852.2125,16.375 Q852.9156,16.375 853.5563,16.5313 Q854.2125,16.6875 854.775,16.9844 L854.775,19.7031 Q854.15,19.125 853.5563,18.8594 Q852.9625,18.5781 852.3375,18.5781 Q850.9938,18.5781 850.3063,19.6563 Q849.6188,20.7188 849.6188,22.8125 Q849.6188,24.9063 850.3063,25.9844 Q850.9938,27.0469 852.3375,27.0469 Q852.9625,27.0469 853.5563,26.7813 Q854.15,26.5 854.775,25.9219 L854.775,28.6406 Z " fill="#000000"/><text fill="#000000" font-family="sans-serif" font-size="14" lengthAdjust="spacing" textLength="145.2842" x="872.3063" y="27.8467">LearningOpportunity</text><line style="stroke:#181818;stroke-width:0.5;" x1="804.9" x2="1052.4967" y1="39" y2="39"/><rect fill="none" height="6" style="stroke:#C82930;stroke-width:1;" width="6" x="811.9" y="49.6484"/><text fill="#000000" font-family="sans-serif" font-size="14" lengthAdjust="spacing" textLength="223.5967" x="823.9" y="55.9951">default language: Concept [1,1]</text><rect fill="none" height="6" style="stroke:#C82930;stroke-width:1;" width="6" x="811.9" y="65.9453"/><text fill="#000000" font-family="sans-serif" font-size="14" lengthAdjust="spacing" textLength="172.7031" x="823.9" y="72.292">identifier: Identifier [0,1]</text><rect fill="none" height="6" style="stroke:#C82930;stroke-width:1;" width="6" x="811.9" y="82.2422"/><text fill="#000000" font-family="sans-serif" font-size="14" lengthAdjust="spacing" textLength="144.2793" x="823.9" y="88.5889">title: langString [1,*]</text><line style="stroke:#181818;stroke-width:0.5;" x1="804.9" x2="1052.4967" y1="95.8906" y2="95.8906"/></g><!--class c15--><g id="elem_c15"><rect codeLine="62" fill="#F1F1F1" height="162.0781" id="c15" rx="2.5" ry="2.5" style="stroke:#181818;stroke-width:0.5;" width="299.7109" x="1181.84" y="180.89"/><ellipse cx="1283.3639" cy="196.89" fill="#ADD1B2" rx="11" ry="11" style="stroke:#181818;stroke-width:1;"/><path d="M1286.3327,202.5306 Q1285.7546,202.8275 1285.1139,202.9681 Q1284.4733,203.1244 1283.7702,203.1244 Q1281.2702,203.1244 1279.9421,201.4838 Q1278.6296,199.8275 1278.6296,196.7025 Q1278.6296,193.5775 1279.9421,191.9213 Q1281.2702,190.265 1283.7702,190.265 Q1284.4733,190.265 1285.1139,190.4213 Q1285.7702,190.5775 1286.3327,190.8744 L1286.3327,193.5931 Q1285.7077,193.015 1285.1139,192.7494 Q1284.5202,192.4681 1283.8952,192.4681 Q1282.5514,192.4681 1281.8639,193.5463 Q1281.1764,194.6088 1281.1764,196.7025 Q1281.1764,198.7963 1281.8639,199.8744 Q1282.5514,200.9369 1283.8952,200.9369 Q1284.5202,200.9369 1285.1139,200.6713 Q1285.7077,200.39 1286.3327,199.8119 L1286.3327,202.5306 Z " fill="#000000"/><text fill="#000000" font-family="sans-serif" font-size="14" lengthAdjust="spacing" textLength="88.1631" x="1303.8639" y="201.7367">Qualification</text><line style="stroke:#181818;stroke-width:0.5;" x1="1182.84" x2="1480.5509" y1="212.89" y2="212.89"/><rect fill="none" height="6" style="stroke:#C82930;stroke-width:1;" width="6" x="1189.84" y="223.5384"/><text fill="#000000" font-family="sans-serif" font-size="14" lengthAdjust="spacing" textLength="174.2754" x="1201.84" y="229.8851">education level: Concept</text><rect fill="none" height="6" style="stroke:#C82930;stroke-width:1;" width="6" x="1189.84" y="239.8353"/><text fill="#000000" font-family="sans-serif" font-size="14" lengthAdjust="spacing" textLength="180.3047" x="1201.84" y="246.182">homepage: WebResource</text><rect fill="none" height="6" style="stroke:#C82930;stroke-width:1;" width="6" x="1189.84" y="256.1322"/><text fill="#000000" font-family="sans-serif" font-size="14" lengthAdjust="spacing" textLength="172.7031" x="1201.84" y="262.4789">identifier: Identifier [0,1]</text><rect fill="none" height="6" style="stroke:#C82930;stroke-width:1;" width="6" x="1189.84" y="272.4291"/><text fill="#000000" font-family="sans-serif" font-size="14" lengthAdjust="spacing" textLength="273.7109" x="1201.84" y="278.7757">learning outcome summary: Note [0,1]</text><rect fill="none" height="6" style="stroke:#C82930;stroke-width:1;" width="6" x="1189.84" y="288.7259"/><text fill="#000000" font-family="sans-serif" font-size="14" lengthAdjust="spacing" textLength="261.0576" x="1201.84" y="295.0726">other documents: WebResource [1,*]</text><rect fill="none" height="6" style="stroke:#C82930;stroke-width:1;" width="6" x="1189.84" y="305.0228"/><text fill="#000000" font-family="sans-serif" font-size="14" lengthAdjust="spacing" textLength="165.3135" x="1201.84" y="311.3695">thematic area: Concept</text><rect fill="none" height="6" style="stroke:#C82930;stroke-width:1;" width="6" x="1189.84" y="321.3197"/><text fill="#000000" font-family="sans-serif" font-size="14" lengthAdjust="spacing" textLength="144.2793" x="1201.84" y="327.6664">title: langString [1,*]</text><line style="stroke:#181818;stroke-width:0.5;" x1="1182.84" x2="1480.5509" y1="334.9681" y2="334.9681"/></g><!--class c16--><g id="elem_c16"><rect codeLine="73" fill="#F1F1F1" height="113.1875" id="c16" rx="2.5" ry="2.5" style="stroke:#181818;stroke-width:0.5;" width="198.7031" x="2008.34" y="419.96"/><ellipse cx="2042.0317" cy="435.96" fill="#ADD1B2" rx="11" ry="11" style="stroke:#181818;stroke-width:1;"/><path d="M2045.0004,441.6006 Q2044.4223,441.8975 2043.7817,442.0381 Q2043.1411,442.1944 2042.4379,442.1944 Q2039.9379,442.1944 2038.6098,440.5538 Q2037.2973,438.8975 2037.2973,435.7725 Q2037.2973,432.6475 2038.6098,430.9913 Q2039.9379,429.335 2042.4379,429.335 Q2043.1411,429.335 2043.7817,429.4913 Q2044.4379,429.6475 2045.0004,429.9444 L2045.0004,432.6631 Q2044.3754,432.085 2043.7817,431.8194 Q2043.1879,431.5381 2042.5629,431.5381 Q2041.2192,431.5381 2040.5317,432.6163 Q2039.8442,433.6788 2039.8442,435.7725 Q2039.8442,437.8663 2040.5317,438.9444 Q2041.2192,440.0069 2042.5629,440.0069 Q2043.1879,440.0069 2043.7817,439.7413 Q2044.3754,439.46 2045.0004,438.8819 L2045.0004,441.6006 Z " fill="#000000"/><text fill="#000000" font-family="sans-serif" font-size="14" lengthAdjust="spacing" textLength="125.166" x="2060.1854" y="440.8067">LearningOutcome</text><line style="stroke:#181818;stroke-width:0.5;" x1="2009.34" x2="2206.0431" y1="451.96" y2="451.96"/><rect fill="none" height="6" style="stroke:#C82930;stroke-width:1;" width="6" x="2016.34" y="462.6084"/><text fill="#000000" font-family="sans-serif" font-size="14" lengthAdjust="spacing" textLength="172.7031" x="2028.34" y="468.9551">identifier: Identifier [0,1]</text><rect fill="none" height="6" style="stroke:#C82930;stroke-width:1;" width="6" x="2016.34" y="478.9053"/><text fill="#000000" font-family="sans-serif" font-size="14" lengthAdjust="spacing" textLength="164.377" x="2028.34" y="485.252">more information: Note</text><rect fill="none" height="6" style="stroke:#C82930;stroke-width:1;" width="6" x="2016.34" y="495.2022"/><text fill="#000000" font-family="sans-serif" font-size="14" lengthAdjust="spacing" textLength="144.2793" x="2028.34" y="501.5489">title: langString [1,*]</text><line style="stroke:#181818;stroke-width:0.5;" x1="2009.34" x2="2206.0431" y1="508.8506" y2="508.8506"/><rect fill="#F24D5C" height="6" style="stroke:#C82930;stroke-width:1;" width="6" x="2016.34" y="519.4991"/><text fill="#000000" font-family="sans-serif" font-size="14" lengthAdjust="spacing" textLength="166.6328" x="2028.34" y="525.8457">related skill(s): Concept</text></g><!--class c17--><g id="elem_c17"><rect codeLine="81" fill="#F1F1F1" height="80.5938" id="c17" rx="2.5" ry="2.5" style="stroke:#181818;stroke-width:0.5;" width="213.6191" x="776.88" y="767.75"/><ellipse cx="849.7101" cy="783.75" fill="#ADD1B2" rx="11" ry="11" style="stroke:#181818;stroke-width:1;"/><path d="M852.6788,789.3906 Q852.1007,789.6875 851.4601,789.8281 Q850.8195,789.9844 850.1163,789.9844 Q847.6163,789.9844 846.2882,788.3438 Q844.9757,786.6875 844.9757,783.5625 Q844.9757,780.4375 846.2882,778.7813 Q847.6163,777.125 850.1163,777.125 Q850.8195,777.125 851.4601,777.2813 Q852.1163,777.4375 852.6788,777.7344 L852.6788,780.4531 Q852.0538,779.875 851.4601,779.6094 Q850.8663,779.3281 850.2413,779.3281 Q848.8976,779.3281 848.2101,780.4063 Q847.5226,781.4688 847.5226,783.5625 Q847.5226,785.6563 848.2101,786.7344 Q848.8976,787.7969 850.2413,787.7969 Q850.8663,787.7969 851.4601,787.5313 Q852.0538,787.25 852.6788,786.6719 L852.6788,789.3906 Z " fill="#000000"/><text fill="#000000" font-family="sans-serif" font-size="14" lengthAdjust="spacing" textLength="59.459" x="870.2101" y="788.5967">Location</text><line style="stroke:#181818;stroke-width:0.5;" x1="777.88" x2="989.4991" y1="799.75" y2="799.75"/><rect fill="none" height="6" style="stroke:#C82930;stroke-width:1;" width="6" x="784.88" y="810.3984"/><text fill="#000000" font-family="sans-serif" font-size="14" lengthAdjust="spacing" textLength="172.7031" x="796.88" y="816.7451">identifier: Identifier [0,1]</text><rect fill="none" height="6" style="stroke:#C82930;stroke-width:1;" width="6" x="784.88" y="826.6953"/><text fill="#000000" font-family="sans-serif" font-size="14" lengthAdjust="spacing" textLength="187.6191" x="796.88" y="833.042">spatial code: Concept [1,*]</text><line style="stroke:#181818;stroke-width:0.5;" x1="777.88" x2="989.4991" y1="840.3438" y2="840.3438"/></g><!--class c18--><g id="elem_c18"><rect codeLine="87" fill="#F1F1F1" height="64.2969" id="c18" rx="2.5" ry="2.5" style="stroke:#181818;stroke-width:0.5;" width="150.4209" x="265.48" y="229.78"/><ellipse cx="290.3523" cy="245.78" fill="#ADD1B2" rx="11" ry="11" style="stroke:#181818;stroke-width:1;"/><path d="M293.3211,251.4206 Q292.7429,251.7175 292.1023,251.8581 Q291.4617,252.0144 290.7586,252.0144 Q288.2586,252.0144 286.9304,250.3738 Q285.6179,248.7175 285.6179,245.5925 Q285.6179,242.4675 286.9304,240.8113 Q288.2586,239.155 290.7586,239.155 Q291.4617,239.155 292.1023,239.3113 Q292.7586,239.4675 293.3211,239.7644 L293.3211,242.4831 Q292.6961,241.905 292.1023,241.6394 Q291.5086,241.3581 290.8836,241.3581 Q289.5398,241.3581 288.8523,242.4363 Q288.1648,243.4988 288.1648,245.5925 Q288.1648,247.6863 288.8523,248.7644 Q289.5398,249.8269 290.8836,249.8269 Q291.5086,249.8269 292.1023,249.5613 Q292.6961,249.28 293.3211,248.7019 L293.3211,251.4206 Z " fill="#000000"/><text fill="#000000" font-family="sans-serif" font-size="14" lengthAdjust="spacing" textLength="96.4824" x="306.5462" y="250.6267">WebResource</text><line style="stroke:#181818;stroke-width:0.5;" x1="266.48" x2="414.9009" y1="261.78" y2="261.78"/><rect fill="none" height="6" style="stroke:#C82930;stroke-width:1;" width="6" x="273.48" y="272.4284"/><text fill="#000000" font-family="sans-serif" font-size="14" lengthAdjust="spacing" textLength="124.4209" x="285.48" y="278.7751">URL: anyURI [1,1]</text><line style="stroke:#181818;stroke-width:0.5;" x1="266.48" x2="414.9009" y1="286.0769" y2="286.0769"/></g><!--link c1 to c4--><g id="link_c1_c4"><path codeLine="93" d="M779.86,533.46 C749.69,549.7 724.69,563.15 724.69,563.15 C724.69,563.15 724.69,580.15 724.69,580.15 C724.69,580.15 751.5596,591.8629 787.0796,607.3429 " fill="none" id="c1-to-c4" style="stroke:#181818;stroke-width:1;"/><polygon fill="#181818" points="792.58,609.74,785.9275,602.4774,787.9964,607.7424,782.7314,609.8112,792.58,609.74" style="stroke:#181818;stroke-width:1;"/><text fill="#000000" font-family="sans-serif" font-size="13" lengthAdjust="spacing" textLength="114.188" x="725.69" y="576.2169">organisation [1,*]</text></g><!--link c1 to c4--><g id="link_c1_c4"><path codeLine="94" d="M881.74,533.22 C881.17,549.56 880.69,563.15 880.69,563.15 C880.69,563.15 880.69,580.15 880.69,580.15 C880.69,580.15 881.0519,588.3856 881.7219,603.9456 " fill="none" id="c1-to-c4-1" style="stroke:#181818;stroke-width:1;"/><polygon fill="#181818" points="881.98,609.94,885.5891,600.7763,881.7649,604.9446,877.5965,601.1204,881.98,609.94" style="stroke:#181818;stroke-width:1;"/><text fill="#000000" font-family="sans-serif" font-size="13" lengthAdjust="spacing" textLength="192.7593" x="881.69" y="576.2169">accrediting organisation [1,1]</text></g><!--link c7 to c4--><g id="link_c7_c4"><path codeLine="95" d="M1252.44,517.22 C1194.75,546.09 1126.69,580.15 1126.69,580.15 C1126.69,580.15 1056.1101,600.2852 989.0001,619.4152 " fill="none" id="c7-to-c4" style="stroke:#181818;stroke-width:1;"/><polygon fill="#181818" points="983.23,621.06,992.9818,622.4396,988.0385,619.6893,990.7887,614.746,983.23,621.06" style="stroke:#181818;stroke-width:1;"/><text fill="#000000" font-family="sans-serif" font-size="13" lengthAdjust="spacing" textLength="96.5479" x="1156.69" y="576.2169">awarding body</text></g><!--link c14 to c15--><g id="link_c14_c15"><path codeLine="96" d="M1023.18,104.38 C1070.29,128.29 1123.0393,155.0553 1176.0793,181.9653 " fill="none" id="c14-to-c15" style="stroke:#181818;stroke-width:1;"/><polygon fill="#181818" points="1181.43,184.68,1175.2137,177.0408,1176.9711,182.4177,1171.5941,184.1751,1181.43,184.68" style="stroke:#181818;stroke-width:1;"/><text fill="#000000" font-family="sans-serif" font-size="13" lengthAdjust="spacing" textLength="114.8354" x="1106.69" y="146.9569">qualification [1,1]</text></g><!--link c14 to c4--><g id="link_c14_c4"><path codeLine="97" d="M906.03,104.34 C859.33,203.05 756.69,419.96 756.69,419.96 C756.69,419.96 716.69,563.15 716.69,563.15 C716.69,563.15 716.69,580.15 716.69,580.15 C716.69,580.15 745.1481,591.9606 782.4581,607.4406 " fill="none" id="c14-to-c4" style="stroke:#181818;stroke-width:1;"/><polygon fill="#181818" points="788,609.74,781.22,602.5963,783.3817,607.8239,778.1542,609.9856,788,609.74" style="stroke:#181818;stroke-width:1;"/><text fill="#000000" font-family="sans-serif" font-size="13" lengthAdjust="spacing" textLength="110.6143" x="779.69" y="386.0269">provided by [1,*]</text></g><!--link c4 to c17--><g id="link_c4_c17"><path codeLine="98" d="M883.69,691.11 C883.69,714.52 883.69,738.05 883.69,761.45 " fill="none" id="c4-to-c17" style="stroke:#181818;stroke-width:1;"/><polygon fill="#181818" points="883.69,767.45,887.69,758.45,883.69,762.45,879.69,758.45,883.69,767.45" style="stroke:#181818;stroke-width:1;"/><text fill="#000000" font-family="sans-serif" font-size="13" lengthAdjust="spacing" textLength="84.7603" x="884.69" y="733.8169">location [1,*]</text></g><!--link c15 to c4--><g id="link_c15_c4"><path codeLine="99" d="M1222.19,343.29 C1169.53,381.92 1117.69,419.96 1117.69,419.96 C1117.69,419.96 1078.69,580.15 1078.69,580.15 C1078.69,580.15 1037.1035,594.9306 989.1335,611.9806 " fill="none" id="c15-to-c4" style="stroke:#181818;stroke-width:1;"/><polygon fill="#181818" points="983.48,613.99,993.2999,614.7449,988.1913,612.3155,990.6206,607.2068,983.48,613.99" style="stroke:#181818;stroke-width:1;"/><text fill="#000000" font-family="sans-serif" font-size="13" lengthAdjust="spacing" textLength="95.272" x="1118.69" y="481.1269">publisher [1,1]</text></g><!--link c15 to c16--><g id="link_c15_c16"><path codeLine="100" d="M1481.64,298.66 C1676.11,345 1990.69,419.96 1990.69,419.96 C1990.69,419.96 1992.1403,420.6557 2002.5403,425.5957 " fill="none" id="c15-to-c16" style="stroke:#181818;stroke-width:1;"/><polygon fill="#181818" points="2007.96,428.17,2001.5467,420.6954,2003.4436,426.0247,1998.1143,427.9216,2007.96,428.17" style="stroke:#181818;stroke-width:1;"/><text fill="#000000" font-family="sans-serif" font-size="13" lengthAdjust="spacing" textLength="147.6274" x="1864.69" y="386.0269">learning outcome [1,*]</text></g><!--link c15 to c13--><g id="link_c15_c13"><path codeLine="101" d="M1482.01,321.17 C1550.13,347.56 1615.69,372.96 1615.69,372.96 C1615.69,372.96 1684.605,404.5214 1747.635,433.3914 " fill="none" id="c15-to-c13" style="stroke:#181818;stroke-width:1;"/><polygon fill="#181818" points="1753.09,435.89,1746.5732,428.5055,1748.5442,433.8078,1743.2418,435.7788,1753.09,435.89" style="stroke:#181818;stroke-width:1;"/><text fill="#000000" font-family="sans-serif" font-size="13" lengthAdjust="spacing" textLength="68.4531" x="1648.69" y="386.0269">entitles To</text></g><!--link c15 to c10--><g id="link_c15_c10"><path codeLine="102" d="M1464.44,343.19 C1492.43,360.11 1513.69,372.96 1513.69,372.96 C1513.69,372.96 1529.1147,401.7322 1544.5947,430.6022 " fill="none" id="c15-to-c10" style="stroke:#181818;stroke-width:1;"/><polygon fill="#181818" points="1547.43,435.89,1546.7022,426.0681,1545.0672,431.4835,1539.6518,429.8485,1547.43,435.89" style="stroke:#181818;stroke-width:1;"/><text fill="#000000" font-family="sans-serif" font-size="13" lengthAdjust="spacing" textLength="81.5103" x="1521.69" y="386.0269">credit points</text></g><!--link c15 to c7--><g id="link_c15_c7"><path codeLine="103" d="M1331.69,343.31 C1331.69,374.95 1331.69,403.85 1331.69,429.85 " fill="none" id="c15-to-c7" style="stroke:#181818;stroke-width:1;"/><polygon fill="#181818" points="1331.69,435.85,1335.69,426.85,1331.69,430.85,1327.69,426.85,1331.69,435.85" style="stroke:#181818;stroke-width:1;"/><text fill="#000000" font-family="sans-serif" font-size="13" lengthAdjust="spacing" textLength="172.834" x="1332.69" y="386.0269">awarding information [1,*]</text></g><!--link c15 to c1--><g id="link_c15_c1"><path codeLine="104" d="M1181.59,310.39 C1087.4,340.17 983.69,372.96 983.69,372.96 C983.69,372.96 965.7287,391.4041 942.2687,415.4641 " fill="none" id="c15-to-c1" style="stroke:#181818;stroke-width:1;"/><polygon fill="#181818" points="938.08,419.76,947.227,416.1087,941.5706,416.1801,941.4992,410.5237,938.08,419.76" style="stroke:#181818;stroke-width:1;"/><text fill="#000000" font-family="sans-serif" font-size="13" lengthAdjust="spacing" textLength="85.4331" x="984.69" y="386.0269">accreditation</text></g><!--SRC=[fLLHRzCm47xlhpZr2T0YjR1Hb0Ua2V4mQMBGRU9Xui5rhgsfOmVRwOWG_vspdMPEKca5Ngect_cxx-u-N-nEg8ePLe8K2brJ8LHQDlvXCk6IMGlJIyuD5i8n9xIQ0hF0v_1haW7-h8Hfe60Ey_1x9qg4XzdP_1kXea3bn5gWoU6g-z_1JZX9noHJcrjdXDh0m_piLK18HGuVjE9OEV-MudzFEZaj48My3aAOT6WKwTiZA5RsQRqK1PPliNoYlGsF7Xl79xbkp8OfOPFApqF2PseRSSRI4kAdGv7s8j16aS0sg7XpXAMbRyCYRbCioN3vo4n1o4rLQUDg9LmJKorEgQ3K1gbjQstAK7mEdxJ3Nc_yYyZuBZ0g7n0F9DCxTCI3Kj2Oc3mwT5kllYCVdKpd7apuMGlLpdu-2tdNv5vyr6Otz4n6LgPWigQkLnB7Jhf6PXI9-AY26Klgmcs5d3h1Kw-_EQLXKfJ2WGhdc0JDULsrdJkeEfPwD9rvD5Y1QrPB5pfLan_6jVtZzKeqVAcP7DOQVOX57T-2n3tAf8GCjhh4AYZwYgibMbqR7YxISmrgAmPTEquSDF6oPAPfdNK8qsvBXmhDQpyEsy_IRGZoF-dZm0oodheJokvQ7tMqXR_zdrkHWK59-wy0knDIlh0l_rgKxetXf3jglS78QrmNVN_qgPC6jkpnljulhtDWghbVNYLNOqAxFSlU-qMNmrGd-oyoJ_i1hFqsXC4EWkS-U946joi9Lhfem3ETHvHiH_2Fr8yTmI4cC5H6xwah1QoQJiw1O-43fEO3iHVfSTe3mdg3TUmjJFFtfuSU7RBGBg0mZFl2mfs659nvCFOZhXwRmejU2n8NZREadOqXqpy0]--></g></svg>